<svg version="1.2" xmlns="http://www.w3.org/2000/svg" viewBox="0 0 603 601" width="603" height="601">
	<title>MYs Website</title>
	<style>
		.s0 { fill: #fffffe } 
	</style>
	<path id="Path 0" fill-rule="evenodd" class="s0" d="m331.5 5.6c1.6 0.3 4.6 1.8 6.5 3.3 1.9 1.5 5.9 6.6 8.7 11.2 2.9 4.6 7.7 12.7 10.7 17.9 3 5.2 6.1 11.6 7 14.3 0.9 2.6 2.1 8 2.7 12 0.7 4.2 0.9 11.2 0.5 16.7-0.6 8-1.2 10.6-4.2 17-2.7 5.5-3.1 7.1-1.8 6 1.1-0.8 4.4-3.6 7.4-6.1 3-2.6 8-6.2 11-8.2 3-1.9 9.2-5.3 13.8-7.6 4.5-2.2 10.5-4.6 13.2-5.1 3.6-0.7 6.5-0.7 10.3 0.2 4.2 0.9 6.4 2.3 11.6 7.2 3.5 3.4 7.4 7.9 8.6 10.1 1.3 2.2 2.6 5.6 2.9 7.5 0.3 1.9-0.1 9.1-0.9 16-0.8 6.9-2 14.8-2.6 17.5-0.7 2.8-2 6.7-3 8.8-1.1 2-1.9 3.9-1.9 4.2 0 0.3 2.6 0.2 5.8-0.1 4.2-0.5 6.7-0.2 9.5 1 2.2 1 4.5 3 5.7 5.1 1.1 1.9 2.1 3.5 2.3 3.5 0.1 0 4.5-1 9.7-2.2 8.1-1.9 12.4-2.2 29-2.2 18.5 0 20 0.1 28.5 2.8 5 1.5 11 4 13.4 5.4 2.5 1.5 6.2 4.7 8.3 7.2 2.2 2.5 4.5 6.7 5.4 9.5 0.8 2.8 1.4 8.4 1.4 12.5 0 6.4-0.4 8.4-3.2 14-2.5 5-6.3 9.7-16.8 20.3-7.4 7.5-13.3 13.9-13 14.1 0.3 0.2 3.9 1.1 8 2 4.1 0.9 10.2 3 13.5 4.6 3.3 1.7 7.7 4.5 9.9 6.3 2.1 1.7 5 5.7 6.4 8.7 1.8 3.8 2.7 7.7 3 12.5 0.3 6.1 0.1 7.5-2 10.5-1.5 2.3-4.7 4.7-9.3 7.1-3.9 1.9-8.6 4.1-14 5.9l2.5 1.7c1.4 0.9 4.2 3.2 6.3 5.2 2.2 2 4.3 4.6 4.8 5.9 0.5 1.3 0.5 3.7-0.1 6.2-0.6 2.5-1.9 4.4-3.2 5.2-1.3 0.6-6.3 1.7-11.3 2.4-5 0.8-9.6 1.4-10.2 1.4-0.7 0-1.3 0.3-1.3 0.8 0 0.4 2.4 1.3 5.2 2 2.9 0.7 13.4 4.9 23.3 9.3 9.9 4.5 21.1 9.6 25 11.4 4.1 2 9 5.3 11.8 8.2 2.6 2.6 5.7 6.8 6.9 9.3 1.6 3.5 2 5.6 1.5 9.5-0.4 3.5-1.5 6.1-3.5 8.5-1.6 1.9-5.6 5.2-8.8 7.2-3.2 2.1-10.3 5.3-15.6 7.3-6.2 2.2-18.6 5.2-33.5 8-13.1 2.6-30.1 5.4-51.6 8l3.9 4.5c2.1 2.5 5.6 7.2 7.6 10.5 2 3.3 4.7 8.7 6.1 12 1.4 3.3 3.5 9.4 4.7 13.5 1.7 5.6 2.1 8.7 1.6 12.5-0.3 2.7-1.5 6.4-2.5 8-1 1.6-3.9 4-6.5 5.3-2.5 1.2-7 2.7-9.8 3.2-2.9 0.6-8.4 1-12.3 1-3.9-0.1-9.1-0.4-11.7-0.8-4.7-0.7-4.8-0.7-5.2 2.3-0.3 1.6-0.9 7.1-1.5 12-0.6 4.9-2.2 13.1-3.6 18-1.4 5-4.3 12.6-6.4 17-2.2 4.4-5.9 10.3-8.3 13-2.5 2.8-6.3 5.8-8.6 6.8q-4.2 1.7-6.9 1c-1.5-0.5-3.9-2.4-5.3-4.3-1.4-2-5.4-10.7-9-19.4-5.1-12.4-6.6-15.3-7.1-13.4-0.4 1.2-1.7 6.6-2.9 11.8-1.2 5.2-3.7 12.9-5.4 17-1.7 4.1-5.7 11.3-8.8 16-3 4.7-7.5 10.3-9.9 12.4-2.4 2.2-7.3 5.3-10.9 6.9-5.2 2.4-7.3 2.9-10.5 2.4-2.8-0.5-5.2-1.8-7.8-4.4-2.1-2.1-5.1-6.5-6.8-9.8-1.6-3.3-4.1-10.7-8.2-27l-4.7 10c-2.6 5.5-7 14.3-9.9 19.5-2.9 5.2-6.9 11-8.9 12.8-2 1.8-5.5 3.8-7.7 4.3-2.2 0.6-6.2 0.8-9 0.4-2.7-0.4-6.2-1.3-7.7-2.1-1.6-0.8-4.4-2.9-6.4-4.7-2-1.7-5.6-6.3-8-10.2-2.4-3.9-5.7-10.4-7.4-14.5-1.7-4.1-4.2-11.8-5.4-17-1.3-5.2-2.6-12.1-3.6-21l-5.2 0.6c-3.3 0.4-6.2 0.2-7.5-0.5-1.3-0.6-3.6-3.1-8.3-10.1l-5.7 5.3c-3.2 3-8.5 6.8-11.8 8.4-3.3 1.7-9.1 4-13 5.2-3.8 1.1-8.9 2.1-11.2 2.1-2.4 0-5.6-0.7-7.3-1.5-1.6-0.8-3.8-2.9-4.7-4.6-1-1.7-4-4.3-6.8-5.9-2.7-1.5-7.2-5.2-9.8-8.1-2.9-3.2-5.6-7.6-6.8-10.9-1.1-3-2.2-6.1-2.4-6.8-0.4-0.9-1.2-0.8-3.2 0.5-1.6 0.9-4.5 2.5-6.5 3.5-2.1 1-8 2.5-13 3.4-5.8 1-13.2 1.5-30.3 0.9l-8.4-5c-4.6-2.8-8.9-5.7-9.7-6.5-0.8-0.8-2-3.3-2.8-5.5-0.9-2.2-1.5-5.8-1.5-8-0.1-2.2 0.6-7.1 1.4-11 0.8-3.9 3.5-11.1 5.9-16 2.4-4.9 6.4-11.7 8.9-15 2.5-3.3 6-7.7 10.7-13.5h-4.7c-4.4 0-5.1-0.4-9.1-4.8-2.6-2.8-4.8-6.5-5.5-9-1.2-4.3-1.3-4.3-4.7-3.7-1.9 0.3-6.8 0.1-10.7-0.5-4-0.5-11-2.2-15.5-3.6-4.6-1.4-11.4-4.1-15.3-5.9-4-1.9-9.1-5.4-11.9-8.2-3.6-3.6-6.4-8-10.9-17.3-5.4-11.2-6.1-13.3-6.5-20-0.3-5.6 0-8.3 1.2-10.8 0.9-1.7 3.7-5.3 6.4-8 2.6-2.6 7.7-6.8 11.2-9.4 3.6-2.6 9-5.7 12-7.1 3-1.3 8.7-3.4 12.5-4.7 3.9-1.2 7.3-2.5 7.7-2.9 0.4-0.3-1.8-2.6-4.9-5.1-3.1-2.5-8.8-8.1-12.7-12.6-3.9-4.4-8.3-9.8-9.9-12-1.5-2.1-3.2-5.9-3.8-8.4-0.5-2.5-0.7-6.5-0.2-9 0.4-2.5 1.6-5.8 2.8-7.5 1.5-2.3 3.9-3.7 10-5.7 4.6-1.6 10.2-2.8 18.5-2.8l-2-4c-1.1-2.2-2.3-6.4-2.6-9.3-0.5-3.7-0.2-6.1 0.8-8.2 0.9-1.7 3.2-3.8 5.2-4.8 2-0.9 5-1.7 6.6-1.7 1.7 0 4.7 0.7 6.8 1.5 2 0.9 5.1 1.5 6.7 1.5 2.9 0 2.9-0.1-2-3.4-2.7-1.9-6.9-5.4-9.2-7.7-2.2-2.4-8.9-10-14.8-16.9-5.9-6.9-11.4-14.1-12.3-16-1.1-2.4-1.6-6.3-1.5-12 0-4.7 0.5-10.1 1.1-12 0.6-1.9 2.7-5 4.6-6.8 2-1.7 5.4-4.1 7.6-5.2 2.2-1.1 8.8-2.7 14.8-3.5 5.9-0.9 14.8-1.6 19.7-1.6 7.3 0 12.8 0.9 29 4.7 11 2.6 23.2 5.7 27 7 3.9 1.4 7.3 2.4 7.8 2.4 0.4 0-0.2-2.6-1.3-5.8-1.2-3.1-2.8-8.7-3.5-12.5-0.8-3.7-1.5-10.5-1.5-15.2 0-5.5 0.9-12.4 2.5-19.5 1.4-6.1 3.1-12.2 3.8-13.6 0.6-1.4 2.3-3.3 3.7-4.2 1.6-1 5.5-1.7 10.5-2 7.3-0.4 9-0.1 19.8 3.7 6.4 2.3 11.9 4 12.1 3.8 0.2-0.1 3-5.6 6.1-12.2 3.1-6.6 7.1-13.8 8.8-16 1.7-2.2 6.2-7.6 10-12 3.8-4.4 9.2-9.7 12-11.9 2.9-2.1 7.3-4.9 10-6.2 2.6-1.3 6.6-2.7 9-3.1 3.7-0.5 4.4-0.3 5.9 1.8 0.9 1.3 2.1 4.6 2.6 7.4 0.6 2.7 1.6 10.4 2.2 17 0.6 6.6 1.4 13.1 1.6 14.5 0.4 2.2 1.1 1.5 6.1-6 3.1-4.7 7-10.4 8.8-12.8 1.8-2.4 5.1-5.2 7.4-6.3 2.3-1 6.1-1.9 8.6-1.9 2.5 0 5.7 0.6 7.3 1.4 1.5 0.7 4.2 3 6 5 1.7 2 4.2 5.5 7.7 12.1l0.6-15.5c0.4-9.9 1.2-17.6 2.2-21.3 1.3-4.4 2.4-6.1 5-7.7 2.2-1.4 4.1-1.8 6.2-1.4zm-8.1 8.9c-1.2 2.9-1.9 9-2.5 23-0.4 10.4-1.5 23.5-2.4 29-0.8 5.5-2.7 15.2-4.1 21.5-1.5 6.3-4.2 15.9-6 21.2-1.9 5.4-3.2 10.2-2.9 10.8 0.3 0.5-2 11-5.1 23.2-3 12.3-6.1 23-6.9 23.8-0.9 1 0-4.2 2.5-14.5 2.2-8.8 4-16.4 3.9-17 0-0.6-2.1 4.8-4.8 12-2.6 7.2-5.6 15-6.8 17.5-1.1 2.5-3.4 6.5-5.1 9-1.7 2.5-2.8 4.8-2.4 5.1 0.4 0.3 4.5 1.6 9.2 2.8 5.2 1.3 10.6 3.5 13.8 5.6 2.8 1.9 5.6 3.5 6.2 3.5 0.6 0 2.3-1.9 3.8-4.3 1.6-2.3 4.5-9.4 6.6-15.7 2-6.3 6-16.4 8.9-22.5 2.9-6.1 7.9-14.8 10.9-19.5 3.1-4.7 6.5-10.5 7.6-13 1.1-2.5 2.6-8.1 3.2-12.5 0.7-4.4 1.3-14.5 1.3-22.5 0-10.4-0.5-16.6-1.8-22-1-4.1-2.8-9.9-4.1-12.8-1.3-2.8-2.1-5.2-1.6-5.2 0.4-0.1 1.9 2.5 3.3 5.7 1.4 3.2 3.5 8.9 4.5 12.8 1.5 5.6 1.9 10.3 1.8 24 0 9.3-0.5 19.6-1 22.7-0.5 3.2-0.8 5.8-0.6 5.8 0.1 0 2.5-4.6 5.2-10.3 2.8-5.6 5.5-12.9 6.1-16.2 0.6-3.3 0.9-10 0.6-15-0.3-5.1-1.5-11.8-2.7-15.5-1.2-3.6-3.4-8.8-4.8-11.5-1.3-2.8-6-10.8-10.2-18-6.2-10.3-8.6-13.5-11.6-15.2-2.2-1.2-4.6-2.2-5.4-2.3-0.9 0-2.3 0.6-3.2 1.2-1 0.7-2.5 3.1-3.4 5.3zm-74.9 17c-1.5 3.3-3.6 9.4-4.7 13.5-1.2 4.9-2.1 12.4-2.5 21.5-0.4 10.6-0.2 16.1 1.1 22.5 0.9 4.7 4.3 18.6 7.6 31 3.3 12.4 6.9 27.1 8 32.7 1.1 5.7 2 13 2 16.3 0 3.3-0.7 7.6-1.5 9.5l-1.5 3.5c4.3-0.8 8.2-1.5 11.5-2.1 3.3-0.5 6.3-1.2 6.8-1.4 0.4-0.3 0.7-4.7 0.7-9.8 0-6.6-0.7-11.6-2.4-17.7-1.3-4.7-3.9-13.9-5.9-20.5-1.9-6.6-4-15.8-4.6-20.5-0.6-4.7-1.1-19.1-1.1-32 0-13.9-0.6-29.1-1.5-37.3-0.8-7.5-1.9-14.5-2.4-15.4-0.8-1.4-1.3-0.6-2.6 3.7-0.8 3-2.1 9.8-2.7 15-0.8 7-0.8 13 0.1 23 0.6 7.4 1.5 15.9 1.9 18.8 0.5 3.9 0.4 5.2-0.5 5.2-0.8 0-1.7-2.5-2.3-6.3-0.6-3.4-1.5-12.2-2-19.5-0.7-8.5-0.7-16.5 0-22.5 0.5-5 1.8-11.8 2.8-15 1.1-3.1 1.8-5.7 1.7-5.7-0.1 0-0.9 0.8-1.8 1.7-0.9 1-2.8 4.5-4.2 7.8zm-12.3 1.2c-2.6 3.2-6.6 8.9-8.9 12.8-2.3 3.8-5.6 10.4-7.3 14.5-1.7 4.1-4 11.1-5.1 15.5-1 4.4-2 10.7-2.1 14-0.3 5.8 0.1 6.8 9.5 25.7 5.3 10.9 9.9 19.7 10.2 19.5 0.3-0.1-0.4-8.8-1.6-19.2-1.4-12.3-2-23.1-1.8-30.7 0.2-6.4 0.9-12.1 1.4-12.7q1-1 1.1 15.7c0.1 12.4 0.9 22.8 3.3 40.7 3 23.4 3.2 24.2 7.2 32 3.6 7 4.2 9.1 4.7 17.2l0.7 9.1c4-2 5.9-4.6 7.3-7.7 1.4-3.3 2.2-7.1 2.2-10.9 0-3.1-1.6-12.7-3.5-21.2-1.9-8.5-5.5-22.9-7.9-32-2.4-9.1-5-19.2-5.7-22.5-0.8-3.6-1.3-12.3-1.3-22 0-11.4 0.5-18.1 1.7-23.5 1-4.1 3.3-11 5.2-15.3 1.9-4.2 3.4-7.9 3.2-8.1-0.2-0.2-2 0.4-4 1.5-2 1-5.9 4.5-8.5 7.6zm-17.9 16.8c-1.7 2.2-5.6 8.3-8.7 13.5-3.1 5.2-6.6 12-7.8 15l-2.2 5.5c6.9 5.9 9.2 7.6 9.7 7.5 0.4 0 0.7-1.4 0.7-3 0-1.7 0.6-6 1.4-9.8 0.8-3.7 2.4-9.6 3.7-13.2 1.2-3.6 3.5-9.2 5.2-12.5 1.6-3.3 4.7-8.6 6.8-11.8 2.1-3.1 3.6-5.7 3.4-5.7-0.2 0-2.3 2.4-4.7 5.2-2.4 2.9-5.8 7.1-7.5 9.3zm70.2-11.8c-1.1 0.6-4.3 3.9-7.1 7.4-2.9 3.5-7.6 10.2-10.5 14.9l-5.4 8.5c0.6 37.9 1 43.6 2.7 50 1.1 4.4 4 14.7 6.4 23 2.7 9 4.8 18.4 5.3 23.5l0.8 8.5c4.9-10.5 6.3-15.1 6.3-17.3 0-2 0.9-8.9 2-15.2 1.1-6.3 2.4-16.7 2.9-23 0.6-6.3 1.5-23.2 2.2-37.5 0.6-14.3 1.3-26.7 1.5-27.5q0.4-1.5 1.5-0.5c0.6 0.7 0.5 12-0.6 35-1.2 25.5-2.2 37.5-4 48-1.3 7.7-2.3 14.1-2.2 14.2 0.1 0.1 4.1-10.8 9-24.3 4.8-13.4 9.8-28.8 11.1-34.2 1.4-5.3 3.2-14.3 4-20 1.2-7.6 1.3-11.4 0.6-14.7-0.5-2.5-1.9-6.3-3-8.5-1.1-2.2-3.6-5.6-5.5-7.5-1.9-1.9-4.6-4-6-4.5-1.4-0.6-2.8-1-3.2-0.9-0.5 0.1-2.2 0.4-3.8 0.8-1.6 0.4-3.9 1.2-5 1.8zm-132.3 39.6c-0.6 0.4-1.9 2-2.7 3.7-1.4 2.7-1.3 3.9 0.9 13.2 1.3 5.7 3.5 13.2 4.9 16.8 1.3 3.6 4.7 10.3 7.5 15 2.8 4.7 7.2 11.6 9.9 15.4 2.6 3.8 5.4 7.1 6.1 7.3 0.6 0.2 1.4-0.9 1.7-2.5 0.3-1.5 1.8-4.6 3.5-7l3-4.2c-10.3-12.8-14.8-18.8-16.6-21.5-1.9-2.8-4.5-8.4-5.9-12.5-1.4-4.1-2.5-8.2-2.5-9q0-1.5 0.9-0.5c0.5 0.5 2.6 5 4.5 10 2 4.9 5.2 11.4 7.1 14.2 1.9 2.9 6.1 7.9 9.3 11.1l5.7 5.9 20.5-0.7c-3.3-5-6.2-8.4-8.4-10.7-2.3-2.4-3.8-4.6-3.3-5 0.4-0.5 2.6 1 4.8 3.2 2.3 2.2 5.8 6.5 7.8 9.6 2 3.1 7.1 8.6 11.4 12.2 4.2 3.7 7.7 6.1 7.7 5.4 0-0.6-5.5-12.2-12.2-25.7-10.5-21.1-12.9-25.2-17.2-29.3-2.8-2.6-8-6.3-11.6-8.2-3.6-1.9-9.2-4.3-12.5-5.5-3.3-1.1-8.5-2.2-11.5-2.5-3-0.2-6.8-0.1-8.5 0.4-1.6 0.4-3.6 1-4.2 1.4zm233.7 9.9c-3.6 2-9.6 5.9-13.5 8.6-3.8 2.7-11 8.7-15.9 13.3-4.9 4.6-10.2 10.4-11.9 12.9-3 4.4-2.9 4.3 3.7-2 3.7-3.6 9.5-8.5 12.9-10.8 3.4-2.4 9.2-5.9 13-7.8 3.7-1.9 6.7-3.1 6.7-2.7-0.1 0.5-4.2 3.3-9.2 6.3-4.9 3-12 8-15.7 11-3.6 3.1-9.5 9.2-13.1 13.7-3.6 4.4-8.6 11.6-11.2 15.9-2.7 4.4-6.3 11.5-8.2 15.9-1.9 4.4-3.8 9.3-4.1 11-0.5 2.3 0.3 1.4 3.4-3.5 2.2-3.6 5.1-7.3 6.3-8.3 1.3-1 3.3-1.8 4.6-1.7 1.2 0 3.3 1.1 4.7 2.5 1.7 1.7 2.5 3.6 2.5 6 0 1.9 0.3 3.5 0.8 3.5 0.4 0 2.1-2.6 3.7-5.7 1.7-3.1 6.2-10 10.1-15.3 3.9-5.2 10-12.7 13.7-16.5 3.6-3.9 6.6-6.6 6.7-6 0 0.5-3.9 5.7-8.6 11.5-4.8 5.8-10.9 13.6-13.7 17.5-2.7 3.8-6.5 10.1-8.3 14-1.9 3.8-3.6 8.8-3.9 11-0.3 2.2-1.2 8.9-2.1 15-0.8 6-1.8 11.9-2.1 13-0.3 1.1 6.6-5 15.3-13.6 11.3-11.1 17.8-16.6 22.4-19.1 3.6-2 9.7-4.6 13.5-5.7 3.9-1.2 9-2.1 11.5-2.1 2.5 0 5.2 0.4 6 0.9 0.8 0.5 2.1 0.6 2.9 0.3 0.7-0.4 4.5-5.4 8.4-11.2 3.9-5.8 8.3-13.2 9.8-16.5 1.8-3.9 3.4-9.9 4.4-17 0.9-6.1 1.7-14.4 1.8-18.5 0.1-5.1-0.3-8.3-1.3-10l-1.5-2.5c-0.4 5.4-1 10.4-1.6 14.5-0.6 4.1-2.4 10.9-4 15-1.6 4.1-3.8 9-4.9 10.7-1.1 1.8-2.2 3.2-2.5 3-0.3-0.1 0.8-3.2 2.5-7 1.6-3.7 4-10.2 5.2-14.5 1.4-5 2.2-10.8 2.2-16.4 0.1-8-0.1-9-2.4-11.3l-2.5-2.6c-8.5 3.8-14.1 6.8-18 9.1-3.8 2.4-8.1 5-9.5 5.9l-2.5 1.5c3.1-3.5 6.9-6.5 10.5-8.8 3.6-2.4 8.9-5.5 11.8-7 4.5-2.2 5-2.8 4-4.2-0.7-0.8-2.9-1.9-4.8-2.5-1.9-0.5-5.1-0.9-7-0.9-1.9 0-6 1.1-9 2.3-3 1.2-8.4 3.9-12 5.9zm-240.8 11.5c-0.7 4-1.2 10.4-1.2 14.3 0 3.8 0.7 10 1.5 13.7 0.8 3.8 2.5 9.9 3.8 13.8l2.4 7c13.8 8 19.5 11.7 21.6 13.4 2 1.7 3.9 3 4.1 2.8 0.2-0.1 0.6-2.7 0.9-5.7 0.6-5 0.4-5.7-2-8-1.4-1.4-6.6-8.6-11.5-16-4.9-7.4-10.3-16.9-12-21-1.7-4.1-3.8-10.7-4.8-14.5l-1.7-7zm-56.6 38.6c5.5 2 15.1 6.9 25 12.8 8.8 5.3 18.2 10.7 21 12.1 2.7 1.4 8.8 4.1 13.5 5.9 4.6 1.9 11.6 5.5 15.5 8.1 3.8 2.6 8.5 6 10.5 7.7 1.9 1.6 3.1 3.3 2.7 3.7-0.4 0.5-2.7-0.6-5-2.4-2.3-1.8-6.9-4.9-10.2-7-3.3-2-12.1-6.4-19.5-9.8-7.5-3.3-21-10.5-30-16-9.1-5.4-19.7-11.2-23.5-12.9-6.4-2.8-8-3.1-18-3.1-6.1 0-12.8 0.5-15 0.9l-4 0.9c6.2 1.4 11.1 3 15 4.4 3.8 1.5 12.1 5.4 18.5 8.7 6.3 3.3 17.9 8.5 25.9 11.6 7.9 3.1 14.5 6.1 14.7 6.8 0.3 0.9-0.4 1-2.4 0.4-1.5-0.5-7.2-2.6-12.7-4.6-5.5-2-13.9-5.5-18.5-7.7-4.7-2.2-11.9-5.9-16-8.3-4.2-2.3-9.8-5-12.5-5.9-2.8-0.9-7.3-1.9-10-2.2-4.3-0.5-5.6-0.3-8.5 1.8-2 1.3-4.1 3.5-4.8 5-0.7 1.5-1.3 6.9-1.5 12-0.1 6.9 0.3 10 1.5 12.2 0.8 1.7 6.6 8.9 12.7 16 6.1 7.2 13 14.8 15.3 16.9 2.4 2.1 7 5.6 10.3 7.7l6 3.9c20.2-1.1 22.8-0.9 27.5 0.6 3.4 1.2 8.1 4 12.5 7.7 3.8 3.2 9.9 7.2 13.5 8.9 4.2 2.1 13.3 4.7 26.5 7.5 11 2.5 22.3 5.6 25.2 6.9 3.1 1.4 8 5.2 12 9.2 3.7 3.7 7.8 8.3 9.1 10.3l2.3 3.4c-1-6.9-1.5-11.6-1.7-15-0.4-4.5-0.1-6.8 1.3-9.5l1.8-3.6c-28.7-0.9-39.3-1.9-44-2.8-4.4-1-11-2.9-14.5-4.3-3.6-1.3-11.9-5.1-18.5-8.2-7.3-3.5-21.4-11.9-35.3-21.2-12.8-8.4-23.1-15.7-22.8-16.1 0.3-0.4 7 3.2 14.8 8.1 7.8 4.8 18.8 11.9 24.3 15.6 5.5 3.8 14.9 9.2 21 12.1 6 2.9 15.2 6.6 20.5 8.3 5.2 1.6 12.4 3.5 16 4.1 3.5 0.6 11.9 1.3 18.5 1.7 6.6 0.4 13.6 0.4 15.7 0 3.6-0.6 3.7-0.7 2.5-3.2-0.8-1.6-2.3-2.7-4.2-2.9-1.7-0.3-6.2-1-10-1.5-3.9-0.6-9.5-1.8-12.5-2.6-3.1-0.9-8.9-2.9-13-4.5-4.2-1.6-11.2-5.3-15.7-8.2-4.5-2.9-12.7-9.1-18.2-13.8-5.5-4.6-9.8-8.8-9.6-9.2 0.3-0.4 5.1 3 10.7 7.6 5.6 4.5 12.5 9.8 15.3 11.7 2.7 1.8 9 5.3 14 7.6 4.9 2.4 13.2 5.4 18.5 6.7 5.2 1.3 12.4 2.8 16 3.2l6.5 0.7c-2.8-4.1-4.5-4.9-7.7-5.3-2.5-0.3-7-2.1-10.8-4.4-3.6-2.1-8.3-5.5-10.4-7.4-2.1-2-7-8.4-10.9-14.2-3.8-5.7-8.8-12.4-11.1-14.7-2.3-2.3-3.9-4.4-3.6-4.7 0.2-0.3 2.3 1 4.5 2.8 2.2 1.8 6.9 7.8 10.6 13.2 3.6 5.5 9.5 12.6 13 15.9 3.5 3.2 9.1 7.2 12.4 8.7 3.3 1.6 6.7 2.8 7.7 2.8 1 0 1.8-0.2 1.8-0.5 0-0.2-3-7.1-6.7-15.2-3.6-8.1-9.7-20.2-13.4-26.8-4.6-8.1-8.5-13.6-12.1-17-2.9-2.8-8-6.6-11.3-8.6-3.3-1.9-9.9-5.1-14.5-7.1-4.7-2-14.4-5-21.5-6.7-7.2-1.7-18.2-4.4-24.5-6.1-6.4-1.6-14-2.9-17-2.9l-5.5 0.1zm96.8 4.6c-1.2 2.5-2.7 6.7-3.3 9.3-0.6 2.6-1.1 6.4-1.1 8.5 0 2.1 0.7 6 1.5 8.7 0.8 2.8 4.5 10 8.2 16 3.7 6.1 8.8 16 11.4 22 2.6 6.1 7 15.8 9.9 21.5 2.9 5.8 5.4 10.7 5.6 10.8 0.3 0.1 1.8-0.8 3.6-2 3-2.2 3-2.4 2.5-8-0.4-3.2-1.8-9.2-3.2-13.5-1.5-4.3-4.1-10-6-12.8-1.8-2.7-8.3-10.6-14.5-17.5-6.1-6.8-12-14.1-13.1-16.2-1-2.1-2.1-6.3-2.4-9.5-0.3-4.1 0-7.2 1.3-10.7 1-2.7 2.2-5.1 2.8-5.2 0.6-0.2 0.4 1.7-0.4 4.9-0.7 2.9-1.1 7.5-0.8 10.2 0.2 2.8 1.3 6.8 2.4 9 1.1 2.2 6.6 9.2 12.3 15.5 5.6 6.4 11.9 13.8 14 16.5 2.1 2.8 4.9 8 6.2 11.5l2.5 6.5c6.5-18.6 8.9-26 9.5-28.5 0.6-2.4 0.8-8.1 0.6-12.5-0.3-5.8-1.2-9.6-3.2-14-1.5-3.3-2.7-6.1-2.7-6.2 0-0.1 0.6 0 1.3 0.2 0.7 0.3 2.5 3.1 4.1 6.3 1.9 3.8 3.1 7.9 3.4 12.2 0.3 4.2-0.1 9.6-1.2 15-0.9 4.7-3.7 13.9-6.2 20.5-4.1 10.7-4.4 12.5-3.7 16.5 0.7 3.6 1.3 4.5 2.8 4.5 1.7 0 2.1-1.1 3.2-7.5 0.6-4.1 2.6-13.1 4.3-20 2.1-8.7 3.1-14.9 3.1-20.5 0-4.4-0.7-10.4-1.6-13.5-0.9-3-3.1-8.1-4.8-11.4-2-3.8-6-8.5-11.1-13.3-5.6-5.1-9.7-8-13.3-9.3-2.9-1.1-7.4-2-10-2-2.6 0-6.3 0.8-8.2 1.8-2.2 1.1-4.2 3.3-5.7 6.2zm232.7 21.5c-6.8 9.9-6.9 10.1-5.9 14 0.6 2.2 0.8 6.7 0.5 10-0.3 3.3-1.4 8.5-2.6 11.5-1.1 3.1-3.4 7.7-5 10.3l-3 4.7c5.8 0.6 9 0.3 11-0.1 2.5-0.6 5.9-3.3 12.2-9.6 4.8-4.8 8.7-8.1 8.7-7.3 0 0.9-2.9 4.7-6.3 8.5-3.5 3.9-8 7.8-10 8.8-2.5 1.2-6 1.7-10.9 1.7-5.3 0-7.6 0.4-8.7 1.5-0.9 0.9-1.3 1.7-1 1.9 0.2 0.1 3.2 0.8 6.5 1.4 3.3 0.7 7.3 1.2 9 1.2 1.6 0 5.2-1 8-2.3 2.7-1.4 6.3-3.9 8.1-5.8 1.7-1.8 4.4-5.4 6.1-7.9 1.6-2.4 4.6-7.6 6.6-11.5 2-3.8 4.7-10.3 6.1-14.5 1.4-4.1 2.6-8.4 2.6-9.5 0-1.2-1.5 0.6-3.8 4.5-2.1 3.6-7 9.9-10.9 14-4 4.2-7.6 7.2-8 6.8-0.5-0.4 1.3-2.9 4-5.5 2.6-2.6 6.9-7.9 9.5-11.8 2.6-3.8 5.6-9 6.6-11.5 1-2.7 1.5-5.6 1.2-7.2-0.4-1.5-1.7-4-3.1-5.5-2.1-2.4-3.2-2.8-9.2-3.1-4.3-0.1-7.7 0.2-9.1 1-1.2 0.8-5.4 5.8-9.2 11.3zm42-4.7l-7.5 1.8c0.5 7.7 0.1 11.6-0.5 13.7-0.8 2.9-0.8 3.7 0.2 3.3 0.7-0.2 5.5-2 10.8-4.1 5.2-2 12.4-4.3 16-5.1 3.5-0.7 8.4-1.3 10.7-1.3 2.3-0.1 4.3 0.3 4.3 0.7 0 0.4-3.1 1.1-6.8 1.5-3.7 0.4-10.1 1.6-14.2 2.8-4.2 1.1-10.9 3.7-14.9 5.7l-7.4 3.7c-7.6 15.2-9.7 19.8-9.7 20 0 0.3 2.8-1.2 6.2-3.3 3.4-2.1 9.4-5.3 13.3-6.9 3.8-1.7 8.2-3.6 9.7-4.2 1.5-0.6 3-0.7 3.2-0.3 0.3 0.4-3.5 2.5-8.2 4.6-4.8 2.1-11.8 5.6-15.5 7.7-4 2.4-10.5 7.7-16 13.2-6.2 6.3-10.7 9.9-13.7 11.1-3.5 1.4-5.9 1.7-10 1.2-3.1-0.4-7.3-0.9-9.5-1.2-3.5-0.5-5.5 0.2-14 4.6-6.8 3.4-13.3 5.9-20 7.5-5.5 1.3-13.4 3.1-17.5 4.1-4.2 0.9-12 3.5-17.5 5.7-5.5 2.1-11.1 4.4-12.4 5.1-2.2 1.1-2.2 1.2 2.8 4.4 2.8 1.8 5.5 3.2 6.1 3.2 0.5 0 4.4-2.4 8.7-5.3 4.3-2.9 9.4-6.3 11.5-7.5 2.1-1.2 3.8-1.7 3.8-1.2 0 0.6-4.8 4.3-10.7 8.3-5.8 4-10.8 7.6-11 8-0.2 0.4 0.1 1.4 0.7 2.2 0.8 1.3 2.5 0.5 10.7-4.6 5.4-3.4 14.7-8.6 20.8-11.5 6-2.9 15.2-6.6 20.5-8.3 5.2-1.8 16.2-4.5 24.5-6.2 9-1.7 20.5-3.2 29-3.7l14-0.8c20.9-9.8 29.8-13.9 33.2-15.5 3.4-1.6 6.3-2.5 6.3-2.1 0 0.4-7.8 4.5-17.3 9.1l-17.2 8.4c6.2 1.8 9.5 3.3 11.5 4.5 1.9 1.2 5.1 2.2 7.2 2.2 2.1 0 6.1-1.1 9-2.6 2.9-1.4 8.9-5 13.3-7.8 4.4-2.9 11.1-7.8 15-10.9 3.8-3.1 7.4-5.6 8-5.7 0.5 0-0.6 1.6-2.5 3.6-2 2-6.7 6-10.5 8.9-3.9 2.9-11.1 7.6-16 10.4-5 2.8-8.8 5.2-8.5 5.2 0.2 0 6.5 0.8 14 1.9l13.5 1.9c24.7-25.4 30.3-32 32-35.4 1.3-2.7 2.4-6.8 2.5-9 0.1-2.2 0.1-5.8 0-8 0-2.2-0.4-4.5-0.8-5.2-0.6-1-4.1-0.6-15.5 1.5-8.1 1.5-14.7 2.4-14.7 2 0-0.4 2.3-1.4 5.2-2.3 2.9-0.8 9.3-2.2 14.3-3 4.9-0.8 9.3-1.5 9.7-1.5 0.4 0-0.6-2-2.2-4.5-1.7-2.4-4.5-5.5-6.3-6.8-1.8-1.4-5.2-3.4-7.5-4.5-2.3-1.2-8-3.1-12.5-4.2-5.2-1.3-12.8-2.2-20.7-2.4-6.9-0.3-15.5 0-19 0.5-3.6 0.5-9.9 1.7-14 2.7zm-134.6 12.2c-2.2 3.6-6.1 9.2-8.8 12.5-2.7 3.3-11.8 12.8-20.2 21-12.9 12.6-15.8 16.1-18.4 21.5-1.7 3.6-3.1 7.9-3.1 9.5 0 1.7 0.6 3.8 1.3 4.8 0.9 1.3 1.8 1.6 3.1 1 1.1-0.4 2.8-2.3 3.8-4.3 1-1.9 2.4-4.2 3.1-5.1 0.7-0.9 4.2-3.6 7.8-6 3.9-2.7 7.3-6.1 8.7-8.4 1.2-2.2 2.2-4.7 2.2-5.7 0-1 1-3.1 2.1-4.8 1.1-1.6 2.7-3 3.7-3 1 0 2.8 0.9 4 2 1.2 1.1 2.5 3.5 2.9 5.3 0.3 1.8 0.3 4.8 0 6.7-0.4 2-2.3 6.4-4.4 9.9-2.1 3.6-6.2 9-9.2 12l-5.5 5.6c7-0.4 7.7-1 9.6-4.7 1.2-2.3 6.6-8.5 12.1-13.8 5.5-5.2 10.8-11 11.8-13 0.9-1.9 2.5-7.3 3.4-12 1-4.6 2-14.5 2.3-22 0.4-9.2 0.2-14.2-0.6-15.7-0.6-1.2-1.9-2.3-2.9-2.3-1 0-2.5 0.6-3.4 1.3-0.8 0.7-3.3 4.2-5.4 7.7zm56.1 5.4c-2.8 1.2-7.1 3.7-9.5 5.4-2.5 1.8-16.9 15.5-32.1 30.5-15.1 15-28.3 28.7-29.2 30.5-1 1.8-1.4 3.2-1 3.3 0.4 0 4.8-3.1 9.8-6.8 4.9-3.8 13.6-9.7 19.4-13.3 5.7-3.5 12.4-8.3 15-10.6 2.9-2.6 6.9-8.2 11-15.5 3.6-6.2 8.4-13.3 10.8-15.6 2.3-2.3 6.4-5.3 9-6.5 3.4-1.6 7.4-2.3 14.3-2.7 7.6-0.5 9.1-0.8 7.5-1.7-1.1-0.6-3.2-1.3-4.5-1.6-1.4-0.3-5.5 0.1-9 0.9-3.6 0.7-8.8 2.4-11.5 3.7zm1.1 5.6c-2.1 1.3-5.9 5.1-8.3 8.4-2.5 3.4-6.2 9.3-8.2 13.1-2 3.8-5.4 8.9-7.6 11.4-2.2 2.5-6.5 6-9.5 7.9-3.1 1.9-9.5 6-14.3 9.1-4.8 3.1-8.6 5.8-8.5 5.9 0.1 0.1 1.6-0.2 3.3-0.8 1.6-0.6 9.9-1.5 18.5-1.9 9.7-0.5 17.5-1.5 21-2.6 3-0.9 7.7-2.8 10.5-4.2 2.7-1.4 7.8-4.8 11.2-7.6 3.5-2.9 8.1-7.6 10.3-10.7 2.3-3 5-7.9 6.1-11 1.1-3 2.3-8.8 2.6-13l0.5-7.5c-6-1.1-9.8-1.4-12.2-1.4-2.5 0-6.1 0.6-8 1.3-2 0.6-5.3 2.3-7.4 3.6zm-125.4 1.3c-2 0.6-5.7 2-8.2 3.1-3.1 1.5-4.8 3.1-5.7 5.4-0.8 1.8-1.3 3.9-1.3 4.7 0 1.4 0.3 1.4 3.2 0.1 1.8-0.8 5.6-1.8 8.5-2.2 4-0.7 5.3-0.6 5.3 0.4 0 0.7-2.5 1.7-5.8 2.4-3.2 0.6-7.1 1.8-8.7 2.6-1.7 0.8-3.4 2-3.8 2.6-0.4 0.6-0.7 2.2-0.7 3.4 0 1.2 0.1 2.2 0.2 2.2 0.1 0 3-0.8 6.3-1.9 3.3-1 9.3-2.2 13.5-2.6 4.4-0.4 10.5-0.2 15 0.5 4.1 0.6 8.5 1.8 9.7 2.6 1.2 0.8 3 1.2 4 0.9 1.5-0.5 1.4-0.8-0.7-2-1.4-0.7-4.7-1.8-7.3-2.4-2.6-0.6-5-1.5-5.2-2.1-0.4-0.6 1-0.7 3.7-0.3 2.3 0.3 6.3 1.4 8.8 2.5l4.5 1.9 11.5-11.6c-3.5-2.7-7.7-5-11.5-6.9-3.9-1.8-9.4-3.9-12.3-4.5-2.9-0.6-7.4-1-10-0.9-2.6 0.1-5.7 0.4-7 0.6-1.2 0.3-3.9 1-6 1.5zm-3.2 22.7c8.9 17.9 11.7 23.1 12 23.1 0.2 0 1.1-4.9 1.8-10.8 0.8-5.9 1.6-11.3 1.8-12 0.2-0.8-0.6-1.2-2.4-1.1-1.5 0.1-5.1 0.4-8 0.5zm15.4 19.5c-0.7 4.4-1.4 8.8-1.4 9.8 0 1.1 0.8 1.7 2 1.7 1.5 0 2.1-0.8 2.6-3.7 0.3-2.1 1.3-5.6 2.3-7.8 1-2.2 4-6.6 6.7-9.9 4-4.7 4.6-6 3.4-6.7-0.8-0.5-3.1-1.3-5-1.9-1.9-0.5-4.5-1-5.7-1-1.9 0-2.2 0.7-2.8 5.8-0.3 3.1-1.3 9.3-2.1 13.7zm35-5.2c-1.4 2.1-5.4 5.6-9.4 8.2-4.1 2.7-7.6 5.8-8.5 7.5-0.8 1.7-1.5 4.4-1.5 6 0 2 0.6 3.2 1.8 3.6 0.9 0.4 3.5-0.2 5.7-1.2 2.2-1 5.8-3.5 8-5.5 2.2-2 5.9-6.5 8.2-10 2.4-3.5 4.7-8.1 5.3-10.1 0.7-2.5 0.7-5.1 0-7.8-0.5-2.2-1.7-4.2-2.5-4.4-1.1-0.3-1.9 1-3.1 4.7-0.9 2.9-2.7 6.9-4 9zm-60-11.2c-3.5 1.3-5.2 2.6-6.1 4.6-0.6 1.6-1.4 5.1-1.8 7.8-0.4 2.8-0.8 6-1.1 7.3-0.3 1.5 0.1 2.2 1.1 2.2 0.8 0 3 0.7 4.8 1.5 1.7 0.8 4.1 3 5.2 5 1.1 1.9 2.3 3.5 2.8 3.5 0.4 0 1-2.8 1.3-6.2 0.3-3.5 0.1-11.1-0.4-16.9l-0.9-10.7zm8.7 12.2c0.6 4 0.9 9.4 0.8 12l-0.4 4.8c7.6 0 9.7-0.5 10.1-1.3 0.3-0.7-0.1-3.7-1.1-6.7-0.9-3-3.3-8.7-5.4-12.5-2.9-5.3-4-6.6-4.5-5.3-0.3 1-0.1 5 0.5 9zm-198.6-1.7c-1.3 0.9-1.7 2-1.2 3 0.4 0.8 5.5 4.7 11.5 8.6 5.9 3.9 13.4 8.5 16.7 10.1 3.3 1.7 10.7 4.6 16.5 6.5 5.8 1.9 15.5 4.2 21.5 5.3 6.1 1 15.8 2.1 21.8 2.4 7.6 0.4 10.7 0.9 10.7 1.8 0 1-2.8 1.1-12.7 0.6-7.1-0.4-17.5-1.7-23.3-2.8-5.8-1.2-13.9-3.3-18-4.7-4.1-1.3-11.5-4.4-16.5-6.7-4.9-2.4-13.5-7.3-19-11-5.5-3.7-10.1-6.7-10.2-6.6-0.2 0 0 1.7 0.3 3.7 0.3 2.1 1.4 5.4 2.4 7.3 1 1.9 2.9 4.5 4.2 5.7 1.2 1.2 12.9 7.3 25.8 13.7 12.9 6.3 26.4 12.2 30 13.2 4.8 1.2 10.9 1.7 23 1.8l16.5 0.1c25-10.1 29.7-11.5 33.5-11.5 2.8 0 6.5 0.7 8.3 1.6 1.7 0.9 4.4 2.6 5.9 3.8 1.5 1.1 3 1.9 3.3 1.6 0.3-0.3-1.2-2.5-3.3-5-2.3-2.7-5.9-5.4-8.8-6.7-2.7-1.2-13-3.5-22.9-5.2-9.9-1.6-21.8-4.3-26.5-5.9-4.7-1.6-13.4-5.2-19.5-8-6-2.8-13.7-5.8-17-6.7-3.3-0.8-7.3-1.6-9-1.6-1.6 0-3.9-0.4-5-0.8-1.1-0.4-1.5-1-1-1.3 0.6-0.3 3.9-0.2 7.5 0.3 3.6 0.5 9 1.6 12 2.5 3 0.9 11.2 4.2 18.3 7.5 7 3.2 15.5 6.5 19 7.3 3.4 0.8 11.8 2.4 18.7 3.6 6.9 1.1 12.9 1.9 13.3 1.8 0.5-0.2-5.6-1.6-13.5-3.2-7.8-1.5-17.7-3.9-21.8-5.2-4.1-1.3-10.2-4-13.5-6-3.3-2-7.8-5.3-10.1-7.3-2.2-2-5.6-4.4-7.5-5.3-1.8-1-5.5-2.1-8-2.6-2.7-0.5-10.5-0.5-18.5 0.1-10.3 0.7-14.8 0.6-17.4-0.3-1.9-0.6-4.7-1.5-6.1-1.9-1.4-0.4-3.9-0.4-5.5 0.1-1.6 0.4-3.8 1.5-4.9 2.3zm358.8 14.5c-4 1.1-9.7 3.2-12.5 4.6-2.9 1.5-7.3 4-9.8 5.7-2.5 1.7-9.1 6.7-14.8 11.1-5.6 4.5-10 8.3-9.6 8.6 0.3 0.3 4.9 1 10.3 1.7 5.3 0.7 15 1.2 21.6 1.2 6.6 0 16.5-0.6 22-1.4 5.5-0.8 12.3-2.1 15-3.1 2.8-0.9 7.3-2.8 10-4.2 2.8-1.4 7.5-4.2 10.5-6.3 3-2 7.2-5.5 9.4-7.6 3.1-3.1 3.7-4.3 3.2-6.6-0.4-1.9-1.8-3.3-4.8-4.9-3.5-1.7-6.4-2.2-15.3-2.4-6-0.2-14.8 0.1-19.5 0.7-4.7 0.5-11.8 1.8-15.7 2.9zm-190.2 5c-1.9 1.4-4.3 3.8-5.5 5.5-1.1 1.6-2.6 5-3.3 7.5-0.9 3.1-1 5.5-0.3 8 0.5 1.9 1.9 4.4 3 5.5 1.8 1.7 2.3 1.8 3.1 0.5 0.5-0.8 1.1-3.1 1.4-5 0.3-1.9 1.3-5.1 2.3-7 1.3-2.6 2.8-3.9 5.9-5l4.3-1.5 8 8c3.1-7 4-9.8 4-10.8 0-0.9-0.7-3.2-1.5-5-0.8-1.8-2.6-3.8-4-4.5-1.4-0.7-3.5-1.2-4.7-1.2-1.3 0-3.9 0.6-5.8 1.3-1.9 0.7-5 2.3-6.9 3.7zm138.4 10.9c-7.7 3.8-17.1 9.1-21 11.8-4.9 3.4-7.1 5.5-7.4 7.3-0.3 1.8 0 2.3 1 1.8 0.8-0.4 4.1-1.8 7.4-3.2 3.3-1.3 8.7-2.8 12-3.2 3.3-0.4 7.6-1.5 9.5-2.5 1.9-0.9 7.8-5.2 13-9.5 5.2-4.3 12.2-9.5 15.5-11.6 3.7-2.4 5.2-3.8 4-3.8-1.1 0.1-6 1.4-11 3.1-4.9 1.6-15.3 6-23 9.8zm103.8-1.8l-4.8 4.6c26.1 0.7 30.8 1.2 31.7 2.1 1.1 1.1-1.5 1.2-15.2 0.6-11.4-0.5-17.6-0.4-20 0.4-1.9 0.7-6.9 3-11 5.2l-7.5 4c9.3-1 20.6-1.4 31-1.4 10.5 0 23.3 0.6 28.5 1.3 5.2 0.7 10.4 1.7 11.5 2.2 1.3 0.6-0.2 0.7-4.5 0.4-3.6-0.4-13-1-21-1.5-8.7-0.5-20.7-0.5-30 0.1-8.5 0.5-19.3 1.7-24 2.6-8.2 1.6-8.4 1.7-4.5 2.4 2.2 0.3 16.2 1.4 31 2.4 14.9 1 27.7 2.1 28.5 2.6 1 0.6 0.4 0.8-2 0.8-1.9 0-18.1-1-36-2.3-31.5-2.3-32.8-2.4-41.5-0.7l-9 1.7c18.6 2 28.1 3.6 33 4.8 5 1.3 9.9 2.8 11 3.5 1.9 1.1 1.8 1.2-0.5 0.7-1.4-0.3-7.7-1.8-14-3.3-10.4-2.5-13.3-2.7-30.5-2.7-10.9 0-20.1 0.4-21.5 1-2 0.9-0.3 1.2 9 1.7 7.3 0.4 14.8 1.5 20.5 3 5 1.3 18.9 5.5 31 9.1 12.1 3.7 24.7 7 28 7.3 3.3 0.2 15.2-0.3 26.5-1.1 11.3-0.9 25.5-2.6 31.5-3.8 6.9-1.3 14-3.5 19-5.8 4.7-2.1 8.9-4.8 10.3-6.6 1.2-1.6 2.3-3.6 2.3-4.4 0-1.1-0.9-0.7-2.8 1.2-1.5 1.5-5.3 3.8-8.3 5.1-3 1.4-10 3.4-15.5 4.5-5.5 1.2-12.9 2.3-16.5 2.7-4.2 0.4-6 0.3-5-0.3 0.8-0.6 4.7-1.3 8.5-1.7 3.9-0.4 11.1-1.7 16-3 5-1.2 10.6-3 12.5-4 1.9-1 5.2-3.4 7.3-5.4 2.2-2.1 3.7-4.6 3.7-5.9 0-1.2-0.9-4.6-2-7.5-1-2.9-3.4-6.6-5.2-8.4-1.8-1.7-5.1-4.2-7.3-5.6-2.2-1.3-6-3.2-8.5-4-2.5-0.9-14.2-3.1-26-5.1-11.8-1.9-23.6-3.7-26.2-4-4.6-0.6-4.7-0.5-5.7 2.7-0.6 1.7-3.2 5.3-5.8 7.8zm-149.5-2.1c-3.2 1.9-5.6 3.6-5.5 3.8 0.1 0.1 7.2-2.4 15.7-5.7 11.9-4.6 14.7-6.1 12-6.1-1.9 0-6.4 1-10 2.3-3.6 1.2-9.1 3.8-12.2 5.7zm-282.8 2.7c-5.1 2.6-5.6 3.1-6.7 7.8-0.7 2.8-1 6.7-0.6 9 0.4 2.2 2.1 6 3.7 8.5 1.7 2.5 8.5 9.9 15.1 16.6l12 12.2c33.1 16.5 33.6 16.6 35 14.7 0.8-1.1 1.5-2.4 1.5-2.8 0-0.4 1.8-1.8 4-3.2 2.2-1.4 3.8-3 3.5-3.5-0.3-0.6-4.5-3-9.5-5.5-4.9-2.5-9-5-9-5.5 0-0.6 4.3 1 9.5 3.5 5.2 2.5 10.9 4.5 12.5 4.5 1.7 0 6-1.2 9.8-2.7 3.7-1.4 7.1-2.9 7.5-3.2 0.4-0.3-2.1-1.7-5.5-3-3.5-1.3-11.2-4.7-17.3-7.5-6-2.9-15.9-8.1-22-11.6-6-3.4-11.2-6.4-11.5-6.6-0.3-0.2-0.3-0.7 0-0.9 0.3-0.3 9.3 3.9 20 9.4 10.7 5.5 24.5 11.8 30.5 14.1l11 4.2c18.6-4.9 24.7-6.6 25.5-6.9 0.9-0.3-4.1-3.3-12.2-7.4-7.6-3.8-17.7-8.1-22.5-9.4-4.9-1.4-15.8-5.8-24.3-9.8-8.5-4-20-9.7-25.5-12.8-5.5-3.1-11.3-5.9-13-6.2-1.6-0.2-5.9-0.1-9.5 0.4-3.6 0.5-9 2.1-12 3.6zm132.5 20.5c-0.5 0.4 1.2 0.8 3.6 0.8 2.4 0 7.1 0.9 10.4 2.1 4.7 1.7 9 2.2 19.5 2.6l13.5 0.4c-14.7-9.6-20.3-12.5-22-12.7-1.6-0.3-7.8 1-13.6 2.8-5.9 1.8-11 3.6-11.4 4zm171 3c-2.6 1.4-2.9 2-2.5 4.8 0.3 1.9 1.7 4.3 3.3 5.6 2.2 1.9 3.9 2.4 8.5 2.4 3.1 0 8.2-0.7 11.2-1.5 3-0.8 9.1-3.3 13.5-5.4 6.8-3.4 9.4-4.1 17-4.7 5-0.4 12.2-1.2 16-1.9l7-1.3c-16.3-0.2-25.9-0.9-32-1.7-6-0.8-14.8-1.5-19.5-1.5-5.3 0.1-10.6 0.8-14 1.9-3 0.9-6.8 2.5-8.5 3.3zm-178.8 1.6c-0.5 0.4 1.8 2.3 5 4.3 3.2 2.1 9.2 5 13.3 6.7 4.1 1.6 10.4 3.6 14 4.5 3.6 0.9 8.8 1.8 11.5 2.1l5 0.5c-11-3.4-13.9-5.2-18.2-9.3-3.2-3-8-6.4-10.8-7.7-2.7-1.2-7-2.3-9.5-2.5-2.5-0.1-5.6 0-7 0.2-1.4 0.3-2.9 0.8-3.3 1.2zm-18.7 6.2c5.8 2.8 10.6 4.9 10.7 4.8 0.1-0.2-1.4-2.5-3.3-5.1l-3.4-4.7-14.5-0.1zm10.8 0.3c2.1 2.9 5.2 6.2 6.8 7.3 1.6 1.1 4.9 2.4 7.4 2.8 2.5 0.4 11.9 3.1 21 6.1 9.1 3 18.2 5.6 20.3 6 2.6 0.4 3.7 0.2 3.7-0.7 0-0.7-0.4-1.9-0.8-2.6-0.4-0.9-1.6-1.2-3.2-0.8-1.4 0.3-3.3 0.8-4.2 1.1-1 0.3-1.8 0.2-1.8-0.2 0-0.4 1.8-1.3 4-2 2.2-0.7 4-1.7 4-2.3 0-0.5-2.4-1-5.2-1-2.9 0-8.7-0.9-12.8-2-4.1-1.2-10.4-3.3-14-4.7-3.6-1.4-10.1-4.8-14.5-7.4-5.3-3.2-9.1-4.9-11.3-4.9h-3.3zm40.6 0.5c2 1.8 4.6 3.6 5.9 3.9 1.2 0.3 5-0.4 8.5-1.5 3.4-1.2 7.3-2.1 8.7-2.1 1.4 0 2.5-0.5 2.5-1 0-0.6-0.6-1.2-1.2-1.5-0.7-0.2-7.3-0.5-14.6-0.7l-13.3-0.3zm12.1 6.5c0.2 0.4 2.6 0.7 5.2 0.8 3.8 0 5.2-0.5 7.1-2.5l2.3-2.6c-4.4 0.1-7.8 0.9-10.4 1.8-2.5 1-4.5 2.1-4.2 2.5zm176.9 0.9c2.2 1.4 5.6 4.3 7.6 6.4 1.9 2.2 4.3 6.2 5.3 8.9 1 2.8 2.2 5.7 2.6 6.5 0.6 1.3 3.4 1.5 16.2 1.5 15.2-0.1 15.5-0.2 25.1-3.8 5.4-2 12.3-4 15.5-4.3l5.7-0.7c-24.8-7.3-36.9-11-43-12.9-6-2-14.4-4.3-18.7-5.2-4.3-0.9-12.1-1.5-17.5-1.5-9.1 0.1-9.5 0.2-6.3 1.4 2 0.7 5.3 2.4 7.5 3.7zm-18.5-0.8c2.5 0.4 6.6 1.2 9 1.7 2.6 0.5 6.3 2.4 8.5 4.3 2.2 1.8 5.3 5.7 6.8 8.7 1.5 3 2.8 7 2.8 8.9 0 2.1-0.4 3.1-0.9 2.5-0.5-0.5-1.6-3.2-2.6-6-0.9-2.7-2.8-6.7-4.3-8.8-1.5-2.1-4.6-4.7-6.8-5.7-2.2-1.1-5.8-2.2-8-2.5l-4-0.6c7.8 3.7 11.5 6.4 13.3 8.2 1.8 1.9 3.7 5 4.3 6.9 0.5 2 0.9 5.8 0.9 8.5 0 2.8-0.6 7.6-1.5 10.8-0.8 3.1-2.1 6.9-3 8.2-0.8 1.4-1.9 2.3-2.5 2-0.6-0.3-0.1-2.4 1.2-5.2 1.5-3.1 2.3-7.5 2.7-12.8 0.2-4.4-0.1-9.5-0.7-11.5-0.6-1.9-2.5-4.8-4.4-6.5-1.8-1.7-5.7-4-8.8-5.1-3-1.2-8-2.4-11.2-2.7-3.6-0.4-5.8-0.3-5.8 0.3 0 0.6 1.7 1 3.8 1 2.1 0 6.1 1.2 9.2 2.8 3.9 1.9 6.1 3.8 7.3 6.2 1 2 1.7 5.6 1.8 8 0 2.5-1.4 9-3.1 14.5-1.6 5.5-3 11.8-3 14 0 2.2 0.7 5 1.5 6.3 0.9 1.2 2.7 2.7 4 3.2 1.9 0.8 3.9 0.6 7.8-0.6 3.6-1.1 6.5-2.9 9.3-5.7 2.7-2.8 4.6-6.1 5.9-10.2 1.4-4.5 1.7-7.9 1.4-14-0.3-4.9-1.3-9.7-2.5-12.5-1.1-2.4-3.6-6.3-5.5-8.5-2-2.2-6-5.2-9-6.7-2.9-1.5-7.2-2.9-9.4-3.2-2.2-0.2-5.1-0.1-6.5 0.3-2.2 0.7-2 0.9 2 1.5zm-230.5 11.7c-5.5 1.7-14.5 5.3-20 8-5.5 2.6-11.4 6.2-13.2 7.9-2.7 2.5-3.3 3.8-3.3 7.5 0 2.5 0.7 5.9 1.5 7.5 0.9 1.7 3.5 4.6 5.8 6.5 2.3 1.9 6.3 4.3 8.7 5.4 3.3 1.5 9.2 2.5 21 3.6 9.1 0.8 20.4 1.5 25 1.5 4.7 0 11.5-0.6 15-1.4 3.6-0.7 8.6-2.3 11-3.6 2.5-1.2 5.9-3.3 7.5-4.5 1.7-1.3 4.9-4.9 7.1-8.1 2.3-3.2 5.3-7.8 6.8-10.1 1.5-2.4 2.4-4.3 2.1-4.3-0.2 0-4.4 3.2-9.2 7.1-4.8 3.8-11.5 8.3-14.8 9.8-3.3 1.6-8.2 3.6-11 4.5-2.7 0.9-9.2 2.5-14.5 3.7-5.9 1.3-15 2.3-24.5 2.7-14.4 0.5-15.2 0.5-20.5-1.9-3-1.4-7.2-4.3-9.2-6.4-2.1-2.2-4.1-5.3-4.4-7-0.4-1.9 0.1-4.4 1.3-6.8 1-2.2 2.4-4.4 3.1-5 0.7-0.7 1.5-0.8 1.8-0.4 0.2 0.4-0.5 2.2-1.6 4-1.1 1.8-1.9 4.8-1.9 6.7 0 2.8 0.8 4.3 4.2 7.6 2.7 2.5 6.1 4.5 9.2 5.5 3.3 0.9 8.9 1.4 16.5 1.3 7.4-0.1 15.3-1 22-2.3 5.8-1.2 14.6-3.5 19.5-5.1 5-1.6 11.7-4.6 15-6.8 3.3-2.2 6.9-4.9 8-6.1 1.9-1.9 1.4-1.9-9 1-6 1.6-14.8 3.3-19.5 3.6-4.6 0.3-8.2 0.4-8 0 0.3-0.3 4.8-1.2 10-2.1 5.3-0.8 14.5-2.9 20.5-4.6 6.1-1.7 12.2-3.7 13.5-4.5 2.5-1.3 2.5-1.3-1.5-2-2.2-0.3-6-1.3-8.5-2.1-2.4-0.8-7.8-3.4-12-5.9-4.1-2.5-9-4.8-11-5.1-1.9-0.4-7.1-0.4-11.5-0.1-4.4 0.4-11.6 1.6-16 2.7-4.4 1.1-11.9 4-16.7 6.3-4.9 2.3-9 3.9-9.3 3.5-0.2-0.4 4.2-3 9.8-5.7 5.6-2.7 12.9-5.7 16.2-6.5 3.3-0.9 11-1.9 17-2.3l11-0.6c20.2 9.6 27.8 12.7 30 13 2.2 0.3 5.7 0.3 7.8 0 2.1-0.4 3.7-1 3.8-1.4 0-0.4-2.9-1.3-6.3-2-3.4-0.6-12.6-3.5-20.3-6.4-12.3-4.5-15.1-5.2-23-5.5-5.3-0.2-11.4 0.3-15 1.1-3.3 0.8-10.5 2.8-16 4.6zm226 2.9c5.9 4.6 8.1 5.8 8.3 4.6 0.1-0.8-0.3-2.8-1-4.3-0.7-1.5-3.1-3.7-5.3-4.9-2.2-1.2-5.8-2.5-8-2.9-2.6-0.5-3.6-0.4-3 0.3 0.6 0.5 4.6 3.8 9 7.2zm-1.4 10.2c1.9 0.9 4.6 1.9 5.9 2.3 2.4 0.6 2.4 0.5-0.5-1.6-1.6-1.3-5.7-4.8-9-7.9-3.3-3.1-7.5-6.2-9.5-6.8-1.9-0.7-3.8-1.2-4.2-1.2-0.4 0 2.5 3.1 6.5 6.8 4 3.7 8.8 7.5 10.8 8.4zm0.7-7.3c4 3.9 7.7 7.1 8.2 7.1 0.6 0 0.9-0.3 0.7-0.7-0.3-0.4-4-3.6-8.3-7.1l-7.9-6.4zm121.3-1.4c-25.8 2.4-29.4 2.9-37.8 5.8-5.1 1.8-9.2 3.6-9.2 4 0 0.4 0.7 0.7 1.5 0.7 0.8 0 5.1 1.8 9.5 4 4.4 2.2 11.5 5.2 15.7 6.6 4.4 1.5 11.3 2.8 15.8 3.2 4.4 0.3 11.1 0 15-0.7 3.8-0.6 11.9-2.5 18-4.2 6-1.6 11.2-2.7 11.5-2.4 0.3 0.3 0.3 0.7 0 0.9-0.3 0.2-4.3 1.5-9 2.9-4.7 1.5-11.4 3.3-15 4.2-3.6 0.8-10.6 1.5-15.5 1.5-5 0-11.9-0.7-15.5-1.5-3.6-0.9-11.2-3.7-17-6.4-5.8-2.7-12.3-5.3-14.5-5.9-2.2-0.5-11.1-1.2-19.8-1.6l-15.7-0.6c0 9.7-0.7 14.8-1.5 17.5-0.8 2.8-2.6 6.7-4 8.8-1.3 2-2 3.7-1.5 3.7 0.6 0 2.2-1 3.7-2.3 1.6-1.3 4.5-5.9 6.6-10.3 2.1-4.3 4.6-8.7 5.5-9.6 0.9-1 2.8-1.8 4.2-1.8 1.4 0 9.5 2.1 18 4.7 8.5 2.5 18.2 5.2 21.5 6 3.3 0.7 12.5 1.9 20.5 2.5 10.9 0.9 16.3 0.9 22 0.1 5.5-0.8 9.8-2.4 16.2-5.7 5.8-3 10.9-4.9 15-5.5 3.5-0.5 8.4-1.2 11-1.5 3.7-0.4 5.3-1.2 6.9-3.3 1.4-1.9 1.8-3.5 1.4-5.3-0.4-1.3-2.1-3.9-3.8-5.8-1.8-1.8-5-4.1-7.2-5.2-2.5-1.2-5.9-1.9-9-1.8-2.8 0-7.3 0.4-10 0.9-2.8 0.5-17.8 2-33.5 3.4zm-443 12.5c-2.5 1.3-7.2 4.2-10.5 6.5-3.3 2.3-8.3 6.7-11 9.7-3 3.2-5.6 7.1-6.4 9.9-1.2 3.9-1.2 5.1 0.4 9.9 0.9 3.1 4.1 10.5 7 16.5 4.1 8.7 6.3 12 10.1 15.4 2.7 2.3 7.6 5.6 10.9 7.1 3.3 1.6 10 4.1 15 5.6 5.6 1.6 12.6 2.8 18.5 3.2l9.5 0.5c2.1-6 4-10.2 5.6-13.3 1.6-3 5.9-8.5 9.6-12.2 3.7-3.7 8.4-7.9 10.3-9.4 1.9-1.4 6-3.7 9-5.1 3.5-1.5 8.3-2.7 13-3.1 4.8-0.4 8.2-1.2 9.5-2.3 1.9-1.5 1.3-1.5-8.5-0.2-5.8 0.7-21.3 2.2-34.5 3.3-13.2 1.1-26.1 2.2-28.8 2.5-2.8 0.3-4.7 0.1-4.7-0.5 0-0.5 0.9-1 2-1 1.1 0 17.2-1.6 35.7-3.5 18.6-2 36-4.2 38.8-4.9l5-1.3c-10.9-1-17-1.7-20.8-2.3-4.6-0.7-8.9-2.2-14-4.9-6.9-3.8-7.6-4-16.2-4-5 0-13.1 0.4-18 0.9-5 0.6-14 2-20 3.1-6.1 1.1-11.2 1.8-11.5 1.5-0.3-0.2 2.6-1.4 6.5-2.6 3.8-1.1 11-2.7 16-3.5 4.9-0.7 14.5-1.7 21.2-2.2 6.8-0.4 12.2-1 12-1.3-0.1-0.3-0.9-2.8-1.8-5.7-1.5-4.5-2-5.1-5-5.7-1.9-0.3-7.7-0.6-12.9-0.5-5.2 0-11.5 0.4-14 0.9-4 0.8-4.3 0.7-2.5-0.5 1.1-0.8 5.8-1.9 10.5-2.5 4.7-0.6 9.2-1.2 10-1.4 0.8-0.1-3.6-2.7-9.8-5.9-6.1-3.1-11.5-5.6-12-5.6-0.4 0.1-4.8 1.6-9.7 3.4-5 1.8-11 4.3-13.5 5.5zm181 6.5c0.5-0.2 1-2.5 1-5 0-2.4-0.5-4.5-1-4.5-0.6 0-1 2.3-1 5 0 3 0.4 4.8 1 4.5zm-6.2-5.9c-1.4 1.6-3.3 4.4-4.2 6.2-0.9 1.8-1.6 3.5-1.6 3.7 0 0.3 1.8 0.5 4 0.5 2.2 0 4.2-0.5 4.5-1.2 0.3-0.7 0.4-3.7 0.2-6.7l-0.3-5.5zm129.5 2.7c-2.3 0.6-4.3 1.7-4.3 2.4 0 0.8 0.7 2.9 1.6 4.6 0.9 1.8 2.6 4.3 3.8 5.6 1.1 1.2 5.6 3.6 9.8 5.2 4.3 1.7 8.2 3 8.8 3 0.5 0 1-1.9 1-4.3 0-2.3 0.9-6.7 2-9.7 1-3 1.9-5.8 2-6.3 0-0.4-2.8-1.2-6.3-1.7-3.4-0.5-7.1-0.9-8.2-0.9-1.1 0.1-2.9 0.3-4 0.5-1.1 0.3-3.9 0.9-6.2 1.6zm62.3 14.1c-3.4 7.2-5.4 10.2-7.9 11.7-1.8 1.1-4.6 2-6.2 2-1.7 0-5.7 0.9-9 2-3.3 1.2-7.6 1.9-9.5 1.8-2.8-0.3-4-1.1-6-4.1-2.2-3.3-3.5-4.1-9.5-5.9-3.9-1.1-8.7-2.9-10.8-3.9-2-1.1-4.5-3-5.5-4.3-1.3-1.8-2.1-2.2-3.5-1.5-1.2 0.6-1.7 2.1-1.7 4.9 0 2.2 0.9 6.8 2 10.2 1.2 3.5 3.6 8.3 5.4 10.8 1.7 2.5 5.4 6 8.1 7.8 2.8 1.8 7.5 4.2 10.5 5.3 3 1.2 9.1 2.3 13.5 2.6 5.7 0.4 9.8 0.1 14.5-1.2 3.6-0.9 9-2.8 12-4.3 3-1.4 7.7-4.6 10.4-7.2 2.9-2.6 6-7 7.7-10.5 1.6-3.3 3.1-8 3.5-10.5 0.4-3 0.1-5.9-1-8.8-0.9-2.3-2.9-5.1-4.4-6.2-1.5-1.2-3.4-2.1-4.2-2-0.8 0-2 0.4-2.6 0.8-0.6 0.4-3.2 5.1-5.8 10.5zm20.7-5.6c1.5 0.7 4.3 1.2 6.4 1 3.6-0.2 3.5-0.3-3-2.5-4.6-1.5-6.6-1.8-6.4-1 0.2 0.7 1.5 1.9 3 2.5zm-214.8 1.3c-4.8 0-5.3 0.2-10.8 6-3.1 3.3-8 7.1-10.7 8.5-2.8 1.4-7.6 3.2-10.8 4-3.1 0.9-10.7 1.8-16.7 2.1l-11 0.6c-11.1 7.5-14.8 11-16.6 13.8-1.5 2.5-3.9 7-5.2 10-1.4 3-3.3 9.1-4.2 13.5-1 4.4-1.8 11.6-1.9 16-0.1 5.7 0.4 8.9 1.5 11 0.9 1.6 2.9 4.4 4.5 6.1 2.7 2.9 3.6 3.2 11.4 3.9 4.9 0.4 11.7 0.2 16-0.4 4.1-0.6 9.7-1.7 12.5-2.5 2.7-0.9 7.2-3 9.9-4.8 2.6-1.8 6.2-5.3 7.8-7.8 1.6-2.5 4.7-8.1 6.8-12.5 2.1-4.4 5.7-12.7 8-18.5 3.5-8.7 4.3-11.9 4.5-18.5 0.3-6.7 0.8-9 3.5-14 3-5.7 3-5.9 0.6-3.5-1.6 1.6-4.1 7.1-6.9 15.5-2.5 7.1-5.5 15-6.7 17.5-1.3 2.5-7.1 10.7-12.9 18.3-5.8 7.6-11 13.8-11.4 13.7-0.4 0 0.9-2.1 2.8-4.8 2-2.6 7-9.4 11.1-15.2 4.2-5.8 8.2-12.1 9.1-14 0.8-1.9 2.8-7.3 4.4-12 1.6-4.7 2.6-8.6 2.4-8.8-0.3-0.1-2.4 2.9-4.8 6.7-2.3 3.8-5.8 9.5-7.7 12.7-1.9 3.2-7.1 9.4-11.5 13.9-4.4 4.4-10.2 9.5-12.8 11.2-2.6 1.8-4.9 3-5.2 2.5-0.2-0.4 2.4-2.8 5.8-5.3 3.4-2.6 8.9-7.5 12.2-11.1 3.3-3.5 10-12.5 15-20.1 4.9-7.6 8.8-14 8.5-14.3-0.3-0.2-3.4 0.6-7 1.9-3.6 1.3-9.2 4.3-12.5 6.7-3.3 2.4-12.4 10.6-20.3 18.2-7.8 7.6-14.4 13.5-14.7 13-0.2-0.4 4.6-5.9 10.8-12.3 6.1-6.4 13.9-13.9 17.2-16.6l6-5c-20.5 0.9-23.8 0.8-23.4 0 0.3-0.6 4.3-1.4 9-1.8 4.6-0.4 12.2-1.4 16.9-2.2 4.7-0.8 10.5-2.3 13-3.4 2.5-1.1 7.9-4.5 12-7.6 4.1-3.1 8.7-6.8 10.2-8.2 1.5-1.4 2.5-2.9 2.3-3.4-0.3-0.4-0.9-0.7-1.3-0.7-0.4 0-1.4 0.5-2.2 1-0.8 0.5-3.8 1-6.5 1zm287.5 6.5c-2.5 0.4-5.5 0.9-6.8 1.3-1.5 0.4 3 1.4 12.3 2.7 8.1 1.1 14.9 2.3 15.1 2.7 0.2 0.5-0.5 0.8-1.6 0.8-1.1 0-12.3-1.4-24.8-3.1-12.5-1.6-30.8-4.3-40.7-5.8-9.9-1.6-19.9-3.2-22.3-3.5l-4.2-0.6c0.5 6.2 0.9 6.6 4.5 7.2 2.2 0.4 20.6 4.2 41 8.4 20.3 4.2 37.4 8 38 8.5 0.6 0.6 0.3 0.9-1 0.8-1.1 0-19.8-3.8-41.5-8.3-37.7-7.8-39.6-8.1-40.5-6.3-0.8 1.4-0.6 2.1 0.5 2.8 0.8 0.5 7.8 3 15.5 5.5 7.7 2.5 18.5 5.6 24 6.9 5.5 1.3 17.4 3.8 26.5 5.5 9.1 1.6 16.7 3.3 17 3.6 0.3 0.4-2 0.3-5 0-3-0.4-11.6-1.9-19-3.2-7.4-1.4-18.7-3.8-25-5.4-6.3-1.6-16.2-4.5-22-6.5-5.8-2-11.4-4-12.5-4.3-1.3-0.5-1.8-0.3-1.5 0.6 0.3 0.8 3.4 3.1 7 5.1 3.6 2 10.8 5.5 16 7.8 5.2 2.2 13.3 5.4 18 7.1 4.7 1.6 13.7 4.1 20 5.5 6.3 1.4 17.1 3.3 24 4.1 6.9 0.9 20.4 2.1 30 2.7 9.6 0.6 22.4 0.9 28.5 0.5 8.7-0.4 10.7-0.3 9.7 0.7-0.9 0.7-5.7 1.3-13.5 1.6-6.7 0.2-19.4-0.2-28.2-0.8-8.8-0.6-21.6-1.9-28.5-2.7-6.9-0.9-18.4-3.1-25.5-4.9-7.2-1.8-17.5-4.9-23-7-5.5-2-15.8-6.4-22.8-9.8l-12.7-6.2c-3.1 4.6-4 6.3-4 6.7 0 0.5 3.6 2.6 8 4.8 4.4 2.2 13.5 5.8 20.2 8.1 6.8 2.2 12.7 4.5 13.3 5 0.5 0.5-1.9 0.2-5.5-0.6-3.6-0.8-9.9-2.7-14-4.1-4.1-1.4-11.2-4.4-15.8-6.5-6.8-3.3-8.5-3.7-9.8-2.7-0.9 0.7-2.5 3-3.5 5-1.1 2.1-1.9 4.8-1.9 6 0 1.3 0.6 3.2 1.3 4.3 0.7 1.1 4 3.6 7.3 5.7 3.2 2 12.4 6.2 20.4 9.3 8 3.1 18.3 7.7 23 10.3 4.7 2.5 10.5 5.6 13 6.9 2.5 1.3 6.7 2.6 9.5 2.9 3.7 0.5 11.8-0.6 31-4.1 14.3-2.6 26.1-4.8 26.2-4.9 0.1 0-2-0.4-4.8-0.9-2.7-0.4-5.3-1.2-5.7-1.9-0.5-0.8-0.1-1 1.3-0.6 1.1 0.4 4.9 1 8.5 1.3 3.7 0.4 9.2 0.2 13-0.5 3.6-0.7 10.3-2.7 15-4.6 4.7-1.9 10.8-5 13.7-6.9 2.9-1.9 6.2-5 7.3-6.8 1.1-1.7 2-4.8 2-6.7-0.1-1.9-0.9-5.3-1.9-7.5-0.9-2.2-3.5-5.8-5.7-8-2.5-2.5-8-5.8-14.9-9.1-6.1-2.9-18.4-8.5-27.5-12.4-12.8-5.5-17.9-7.3-22.5-7.6-5.2-0.4-6.7 0-11.5 2.5-3 1.7-7.5 3.3-10 3.6zm-286.7 11c-1.2 2.7-2.3 5.7-2.3 6.5 0.1 0.8 1.5-1.2 3.1-4.5 1.7-3.3 4.9-7.8 7.1-10 2.5-2.6 3.8-4.7 3.6-6-0.3-1.6-1.2-1-4.7 3.5-2.4 3-5.5 7.7-6.8 10.5zm16.3-3.5c0.7 2.5 2.4 5.9 3.6 7.6 1.3 1.8 5.5 5.9 9.5 9.3 4 3.3 7.3 5.9 7.3 5.6 0-0.3-1.3-3.1-2.9-6.3-1.6-3.1-4.9-8-7.4-10.7-2.4-2.8-6.3-7.7-8.6-11-4-5.8-4.2-5.9-3.6-2.5 0.4 1.9 1.3 5.5 2.1 8zm100.2-2.7c0.1 1.6-0.4 2.9-1.3 3.2-1.3 0.4-1.3 0.9-0.2 3.2 0.8 1.6 1.7 4.1 2.1 5.8 0.4 1.6 0.2 5.2-0.4 8-1 4.3-0.8 5.6 0.9 9.7 1.2 2.7 2.9 5 3.8 5.3 1 0.2 7.2 6.2 13.8 13.2 6.6 7 15.1 16.3 18.9 20.7 3.8 4.5 9.7 12.4 13.1 17.6 3.5 5.2 10.4 17.1 15.5 26.5 5 9.3 13 22.4 17.7 29 4.6 6.6 10.7 16.5 13.4 22 2.7 5.5 5.6 13.1 6.4 17 0.8 3.8 1.5 10.4 1.5 14.5 0 4.1-0.3 8.5-0.5 9.7-0.3 1.3-1 2.3-1.5 2.3-0.6 0-1-4.1-1-10.3 0-6.7-0.6-12.8-1.9-17.7-1-4.1-3.6-10.9-5.6-15-2.1-4.1-7.2-12.5-11.5-18.5-4.2-6.1-9.5-14.2-11.7-18-2.3-3.9-5.9-10.6-8.1-15-2.2-4.4-6.2-11.8-9-16.5-2.7-4.7-7.9-12.4-11.4-17.1-3.5-4.8-9.8-12.7-14-17.5-4.3-4.9-11.3-12.1-15.5-15.9l-7.8-7c4.5 7.7 10.2 20.8 15.4 34 5.3 13.2 11.8 28 14.6 32.8 2.7 4.8 11.2 17.4 18.8 28 7.6 10.5 14.6 20.8 15.6 22.7 1 1.9 2.3 5.6 2.9 8.2 0.7 2.7 2.5 7.4 4.1 10.5 1.6 3.2 4.5 10.3 6.6 15.8 2 5.5 5.1 12.2 6.8 14.8 1.8 2.7 4 5 4.9 5.3 1 0.2 3.2-0.2 5-0.9 1.8-0.8 5.1-3.4 7.3-5.9 2.2-2.5 5.2-7 6.7-9.9 1.5-3 3.3-8.6 3.8-12.4 0.8-5 0.8-10-0.1-17.5-0.6-5.8-2-13.4-3.1-17-1-3.6-2.1-7.1-2.4-7.8-0.2-0.6 0-1.2 0.6-1.2 0.5 0 1.9 2.4 3 5.2 1.1 2.9 2.7 8.4 3.5 12.3 0.8 3.8 1.5 9.9 1.6 13.5l0.1 6.5c2.9-11.6 4.1-19 4.5-23.8 0.4-4.9 0.6-9.2 0.3-9.6-0.3-0.4-2.8-1.6-5.5-2.6-2.8-1-6.7-2.9-8.8-4.2-2-1.3-9.5-7.8-16.5-14.6-7.1-6.7-19.8-19.4-28.3-28.2-11-11.4-16.8-18.2-19.9-23.5-2.4-4.1-9.1-14.9-14.9-24-5.8-9.1-13.1-19.2-16.1-22.5-3-3.4-6.5-8.1-7.8-10.5-1.2-2.5-2.8-7.8-3.5-11.9-1.3-7.2-1.4-7.3-3.2-5.4-1 1.1-1.8 3.1-1.7 4.6zm-115.3 15.9c-1.4 3.8-2.5 7.1-2.5 7.5 0 0.5 0.7-0.1 1.6-1.2 0.8-1.1 2.8-4.5 4.4-7.5 1.5-3 3.2-7.2 3.7-9.3 0.5-2 0.8-3.7 0.6-3.7-0.1 0-1.4 1.7-2.8 3.7-1.3 2.1-3.6 6.8-5 10.5zm6.9-1.2c-1.7 3.6-5.3 9.2-7.9 12.5-2.7 3.3-5.9 8.5-7.2 11.5-1.3 3-2.3 5.6-2.1 5.7 0.2 0.1 2.2-0.8 4.5-2 2.4-1.2 8.4-5.8 13.3-10.2l9-8c-5.4-5.4-7-7.8-7-8.8 0-1.1 1.1-2 3-2.5 1.7-0.4 3-0.9 2.9-1.2 0-0.3-0.9-2.3-1.9-4.5-1.8-3.9-1.9-4-2.7-1.5-0.4 1.4-2.1 5.4-3.9 9zm30.8-0.4c4 1.9 8.6 4.7 10.1 6.2 1.6 1.5 6.8 7.4 11.5 13.1 4.8 5.7 9.8 11.2 11.2 12.3 1.4 1 2.6 1.6 2.7 1.3 0.2-0.3-0.8-2-2.2-3.8-1.5-1.9-2.5-4.6-2.5-6.7 0-2.2-1.3-5.3-3.3-8.4-1.8-2.7-4.7-6.2-6.5-7.8-1.8-1.5-4.9-3.2-7-3.7-2-0.4-6-1.4-8.7-2-3.2-0.8-7.2-2.9-11-5.9-5.7-4.5-5.9-4.5-3.8-1.5 1.5 2.1 4.9 4.6 9.5 6.9zm55.6 1.4c-2.4 1-6.8 2.4-9.8 2.9-3.9 0.7-6.5 1.9-8.8 4.1-2.6 2.4-3.2 3.8-3.2 7 0 2.8 0.7 4.9 2.5 7 1.5 1.8 4.1 3.4 6.7 4.1 2.4 0.6 6.1 0.7 8.3 0.3 2.2-0.3 6-1.6 8.4-2.8 2.4-1.2 6.4-4.4 8.8-7.1 3-3.4 4.9-6.8 6-10.5 1.2-4.2 1.3-6.3 0.5-9-0.6-1.9-1.9-4.3-2.9-5.2-1.7-1.6-1.8-1.5-2.3 3.5-0.3 2.9-1.3 6.4-2.3 7.9-0.9 1.6-1.9 2.7-2.2 2.5-0.3-0.1 0.2-2.8 1-6 0.9-3.4 1.2-6.5 0.7-7.7-0.8-1.9-1.1-1.6-4 2.5-2 2.9-4.6 5.2-7.4 6.5zm-77.2 4.7c2 2.7 4.5 6.5 5.5 8.5 1 2.1 3.8 5.2 6.1 6.8 2.4 1.7 6.1 3.5 8.3 4.1 2.2 0.6 5.1 0.7 6.5 0.4 2.4-0.7 2.3-0.8-1.5-2.1-2.2-0.8-5.2-2.6-6.8-4.2-1.5-1.5-2.5-2.9-2.2-3.2 0.2-0.3 2.3 0.7 4.5 2.2 2.2 1.6 4.2 2.6 4.5 2.3 0.3-0.3-0.2-1.5-1.1-2.8-0.8-1.2-3.6-3.6-6.2-5.3-2.6-1.7-7.1-5.2-10-7.8-3-2.7-6.2-4.6-7.5-4.6-1.3 0-2.7 0.2-3 0.5-0.4 0.3 0.9 2.6 2.9 5.2zm22 4.3c3.1 6.4 5.5 9.3 15.8 19.3 6.6 6.5 12.9 13 13.9 14.5l1.8 2.7c-1-7.8-2.1-11.6-3.1-13.5-1-1.9-4.4-6.5-7.7-10.1-3.2-3.7-7.6-8.9-9.8-11.7-2.2-2.8-5.1-5.7-6.5-6.5-1.4-0.9-3.8-2-5.3-2.6-1.5-0.6-2.8-0.7-2.7-0.3 0 0.4 1.7 4.1 3.6 8.2zm-135.1-1.5c-4.2 2-8.6 5.4-14.7 11.4-6.6 6.6-9.4 10.2-11.9 15.6-2.3 4.7-3.3 8.4-3.3 11.5 0 2.6 1 6.3 2.2 8.7 1.3 2.6 3.5 5 5.4 5.9 1.8 1 5.1 1.7 7.4 1.8 3.4 0.1 5.5-0.8 11.3-4.7l7.1-4.7c0-7.4 0.5-12.4 1-16 0.6-3.6 2-9.4 3.2-13 1.1-3.6 2.9-8.2 3.9-10.3 1.2-2.3 1.4-3.5 0.6-3-0.7 0.3-3.9 2.4-7.2 4.6-3.3 2.2-9.5 7.4-13.8 11.6-4.3 4.2-7.8 7-7.7 6.3 0-0.6 1.4-2.9 3.2-5 1.8-2.1 5.5-5.8 8.3-8.2 2.7-2.4 7.7-6.1 11-8.2 3.3-2.1 6.4-3.8 7-3.8 0.5 0 1.8-0.7 2.7-1.7 1-1 1.7-2.1 1.8-2.6 0-0.4-0.6-0.7-1.3-0.6-0.7 0.1-3.2 0.5-5.7 0.9-2.5 0.4-7.2 2-10.5 3.5zm272 11.4c-4.4 0.9-8.6 2-9.3 2.4-0.7 0.4-1.7 2.4-2.2 4.4-0.6 2.5-0.6 5.1 0 7.5 0.5 2.1 2 4.5 3.2 5.3 1.3 0.8 4.3 1.5 6.8 1.5 2.6-0.1 6-0.9 8-2.1 1.9-1 5.2-4.5 7.3-7.7 2.1-3.1 4.5-8.2 5.3-11.2 0.9-3 1.3-6 1.1-6.6-0.3-0.6-2.8 0.1-6.4 1.9-3.2 1.6-9.4 3.7-13.8 4.6zm-172.7 6.6l11.7 11.5 8.5-17c-3.9-6.2-5.2-8-5.3-8-0.2 0-3.6 3-7.6 6.7zm106.6-7.5c-2.2 2.2-5.9 5.1-8.2 6.3-3.1 1.6-4.3 2.9-4.3 4.5 0 1.2 0.9 4 2 6.2 1.1 2.2 3.1 4.7 4.3 5.6 1.2 0.8 3.1 1.4 4.1 1.2 1.1-0.1 2.9-1.5 4-3.1 1.6-2.1 2.3-4.9 2.7-11 0.4-4.5 0.3-9.4-0.1-11l-0.6-2.8zm33.6-0.4c1.3 2.2 8.2 13 15.3 24 12.5 19.3 13.7 20.7 33.1 40.8 11 11.4 23.6 23.8 27.8 27.5 4.3 3.7 10.6 8.1 14 9.9 3.5 1.8 9.8 3.9 14 4.8 4.3 0.8 11.6 1.5 16.3 1.5 4.6 0 10.6-0.5 13.2-1 2.6-0.5 5.8-1.8 7.1-2.7l2.4-1.8c-20-9.9-28.9-14.8-32.7-17.3-3.9-2.4-10.6-7.3-15-10.8-4.4-3.5-10.5-8.6-13.5-11.4-3.1-2.8-4.4-4.5-3.1-3.8 1.4 0.7 7.7 5.4 14 10.4 6.4 5 14.7 11.2 18.6 13.8 3.8 2.6 12.8 7.6 20 11.1 11.9 5.9 13.1 6.2 14.2 4.7 0.7-1 1.3-3.1 1.3-4.7 0-1.7-1.4-5.9-3.2-9.5-2.4-4.9-5.8-9.1-13.3-16.5-5.5-5.5-13.9-12.7-18.5-16-4.7-3.3-13.2-8.8-19-12.3-5.8-3.4-9.6-6.2-8.5-6.2 1.1 0 6.2 2.4 11.5 5.4 5.2 3 13.3 8.2 18 11.6 4.6 3.5 12.2 9.9 16.9 14.4 4.6 4.4 10.1 10.8 12.2 14.1 2.2 3.3 3.9 5.5 3.9 5 0-0.6-1.1-4.2-2.4-8-1.3-3.9-4-10.2-6-14-2-3.9-6-10.1-8.9-13.9-2.9-3.9-7-8.4-9.2-10.2-2.2-1.8-7.6-5.4-12-7.9-4.4-2.5-11.4-6-15.5-7.7-6.3-2.6-9.1-3.2-16.5-3.4-7-0.3-11-1-17.8-3.4l-8.7-3c-7.5 8.3-10.3 10.3-12.8 11-2 0.5-5.2 1-7 1h-3.2c7.5 11.2 13 18.5 17.2 23.5 4.1 4.9 12.7 14 19.1 20.2 6.4 6.2 11 11.2 10.3 11-0.8-0.1-5.7-3.9-10.8-8.4-5.1-4.5-12.6-11.9-16.6-16.5-3.9-4.6-15.4-19.1-25.5-32.2-10-13.2-19.3-24.7-20.7-25.5l-2.5-1.6zm12.6 7.8c2.2 2.6 4.2 4.4 4.5 4 0.4-0.5 1.2-2.7 1.8-5.1 1-3.8 0.9-4.2-0.6-4.3-1 0-3.9-0.4-6.4-0.7-3.1-0.5-4.4-0.4-4 0.3 0.4 0.5 2.5 3.1 4.7 5.8zm-134 3.5c-3.6 7.6-3.7 7.7-2.7 14.7 0.6 3.8 1.1 7.4 1.1 8 0 0.5 1.4-0.8 3.1-3 1.8-2.2 4-5.8 5-8 1-2.2 2.1-6.5 2.5-9.5 0.7-5.3 0.6-5.6-2.3-7.7l-3-2.2zm174-3.9c-0.9 1.7-1.5 3.3-1.3 3.6 0.1 0.2 4 1.8 8.7 3.5 4.7 1.6 10.3 2.9 12.5 2.9h4c-12.4-6.3-17.4-9.3-19.1-10.6l-3.1-2.5zm-122.7 0.6c0.6 0.3 1.9 2.3 3 4.5 1.1 2.2 2 4.7 2 5.5 0 0.9-0.6 1.3-1.5 1-0.8-0.3-2.2-0.8-3.1-1.2-1.5-0.7-1.6 0.1-0.9 9.2 0.6 7.3 1.7 12.7 4.3 20 1.9 5.5 4.5 11.9 5.8 14.3 1.4 2.3 2.9 4.2 3.4 4.2 0.6 0 1.4-1.7 1.8-3.7 0.4-2.1 0.7-9.6 0.7-16.8-0.1-12.2-0.3-13.6-3.6-23-3.3-9.2-3.9-10.2-8.2-13.2-2.5-1.8-4.6-2.9-4.6-2.3 0 0.6 0.4 1.2 0.9 1.5zm41.2 14.5c-1 1.4-3.1 3.1-4.7 3.9-2.6 1.3-3.3 1.2-6.5-0.5-2.5-1.4-4.3-3.7-6.9-8.9-2.6-5.2-3.6-6.4-3.8-4.7-0.1 1.2 0.9 4.8 2.3 8 1.4 3.3 4.4 7.6 7.2 10.4 2.6 2.5 10.8 8.3 18.2 12.8 7.5 4.5 15.3 9.8 17.4 11.8l3.8 3.7c-1.8-4.6-5-13.2-8.4-22-3.3-8.8-7.3-18.5-8.8-21.5-1.5-3-3.4-6.3-4.1-7.3-1.2-1.6-1.5-1-2.6 5-0.6 3.8-2 7.9-3.1 9.3zm-60.4 6c0.2 4.1-0.3 12-1.1 17.5-0.8 5.5-1.3 10.2-1.1 10.5 0.2 0.3 1.2-2.2 2.2-5.5 1.3-4.5 1.7-9.5 1.7-20.2 0-12.6-0.2-14.4-2-16.8-1.1-1.5-3-3.5-4.3-4.4-2.2-1.5-2.1-1.2 0.9 4.9 2.6 5.1 3.3 8.1 3.7 14zm-8.3-10.5c1.4 3.4 2.5 8 2.5 10.5 0 2.9-1 6.7-2.8 10.5-1.5 3.3-4.4 7.9-6.5 10.3l-3.7 4.2c1.8 15.1 2.1 24.5 1.8 30.5-0.4 9.3-1.1 12.6-4.2 21.5-2 5.8-5.7 14.7-8.1 19.8l-4.5 9.2c3.5 5.7 5.7 8.2 7 9.2 1.4 1 3.7 1.9 5 1.9 1.4 0 3.2-0.8 4-1.7 1.3-1.4 1.5-4.7 1.3-18.3-0.2-11.6 0.1-19 1.2-24.6 0.8-4.4 3.7-19 6.6-32.5 2.8-13.5 5.3-28.5 5.6-33.5 0.5-6.6 0.2-10.4-0.9-14.5-0.9-3-2.6-6.7-3.7-8.2-1.1-1.6-2.6-2.8-3.2-2.8-0.6 0-0.9 0.6-0.6 1.3 0.4 0.6 1.8 3.9 3.2 7.2zm-9.9-0.5c-0.9 3.9-1.5 10.7-1.4 17 0 5.8 0.4 11.6 0.7 13 0.7 2.3 1.1 2 5-4.5 2.3-3.8 4.6-8.6 5.1-10.5 0.5-2 0.5-5.3-0.1-7.7-0.4-2.4-2-6.8-3.4-9.8-1.3-3-2.7-5.5-2.9-5.5-0.2 0-0.7 0.3-0.9 0.8-0.3 0.4-1.2 3.6-2.1 7.2zm-37.4-0.5c-0.6 2.8-1.6 8.4-2.1 12.5-0.6 4.1-2.2 11.8-3.6 17-1.4 5.2-5.3 19-8.7 30.5-3.3 11.6-6.4 21.5-6.9 22-0.6 0.6-0.9 0.4-0.9-0.7 0-1 2.1-8.7 4.5-17 2.4-8.4 5.8-20.7 7.4-27.3 1.7-6.6 4.4-18.7 6.1-27 1.7-8.2 2.9-15.2 2.6-15.5-0.3-0.3-2.1 3.1-4.1 7.5-2 4.4-6.5 15.2-10 24-3.5 8.8-7.6 20.7-9.3 26.5-1.6 5.8-3.5 13.2-4.2 16.5-0.7 3.3-1.5 5.3-1.7 4.5-0.2-0.8 0.4-5.3 1.3-10 0.9-4.7 3.6-14.3 5.9-21.5 2.4-7.1 7.3-20.1 10.9-28.7 3.7-8.7 6.7-16.1 6.7-16.5 0-0.5-1.2 0.3-2.6 1.7-1.4 1.4-4.6 6.6-6.9 11.5-2.4 5-6.1 11-8.3 13.5-2.2 2.5-6.2 5.7-8.9 7.2-2.6 1.5-8.9 3.7-13.9 4.9-4.9 1.2-9.3 2.7-9.7 3.3-0.4 0.6-1.2 3.4-1.8 6.1-0.6 2.8-1.5 9.5-2.1 15-0.7 7-0.7 13.4 0.1 21 0.6 6.1 2 14.6 3.1 19 1.2 4.4 3.2 10 4.4 12.5 1.3 2.5 4.5 6.4 7.2 8.8 2.7 2.3 5.7 4.4 6.8 4.6 1.1 0.2 3.4-0.2 5-0.8 1.7-0.7 4-2.5 5.2-4.2 1.2-1.6 5.3-10.7 9.3-20.1 3.9-9.5 7-17.7 7-18.3 0-0.5 0.5-1 1-1 0.6 0 1 0.5 1 1 0 0.6-1.8 6.3-4.1 12.8-2.2 6.4-5.6 14.9-7.4 18.7-2.1 4.7-4.7 8.3-7.6 10.8-2.4 2.1-3.7 3.7-2.9 3.7 0.9 0 3.2-0.4 5.3-1 2.8-0.7 6.6-3.8 14.6-11.7 7.7-7.7 13-14 18-21.8 4.3-6.5 8.4-14.4 10.2-19.2 1.6-4.6 3.4-12.2 3.9-17 0.6-5.5 0.7-15.1 0.1-25.3-0.6-12.8-1.3-17.7-2.9-22-1.2-3-3.7-7.2-5.6-9.2-2-2.1-3.7-3.7-3.9-3.5-0.3 0.1 0.5 3.6 1.6 7.7 1.7 6.2 2.1 10.5 2.1 24.5 0 15.2-0.3 18-2.6 26.5-1.4 5.2-4 12.8-5.9 16.8-1.8 4-3.5 7.1-3.7 7-0.2-0.2 1.3-5.2 3.2-11.3 2-6 4-12.8 4.6-15 0.5-2.2 1.4-7.6 1.9-12 0.6-4.9 0.6-11.9 0.1-18-0.5-5.5-1.6-13.3-2.4-17.2-0.9-4-2.1-8.8-2.9-10.5-0.7-1.8-1.5-2.8-1.8-2.3-0.3 0.6-1.1 3.3-1.7 6zm90.4 7.5c2.3 6.6 2.7 9.1 2.8 21 0.1 8.6-0.3 15.5-1.2 19l-1.4 5.5c12.2 15.2 15.9 19.2 16 18.8 0.2-0.4-2.4-9-5.7-19-4.8-14.5-6.1-19.6-6.1-24.5 0-3.5 0.8-8.3 1.7-10.8l1.7-4.5c-5-10.1-6.4-14.2-6.4-15.7 0-2.4-0.3-2.8-2.9-2.8-2.7 0-2.8 0.2-2 2.8 0.4 1.5 2 6.1 3.5 10.2zm-30.9-4.3c0.3 2.1 2.8 11.5 5.5 20.8 3.5 12.1 5.7 18 7.7 20.5 1.6 1.9 6.4 6 10.7 9l7.9 5.5c-6.5-8.5-9.8-13.7-11.4-17-1.6-3.3-4.1-10.3-5.6-15.5-1.5-5.2-3.6-11.2-4.6-13.2-1-2.1-3.9-6.1-6.4-8.9l-4.5-5.1zm-29.7 15.6c0 2.6 0.8 6 1.6 7.5 1.3 2.6 1.4 2 1.5-8.5 0-6.2-0.2-11.2-0.3-11.2-0.2 0-1 1.6-1.7 3.7-0.7 2.1-1.2 5.9-1.1 8.5zm67.7 9.8c0 6.1 0.6 8.8 3.3 15.5 1.9 4.4 4 10 4.8 12.5 0.7 2.4 2.3 8.5 3.4 13.5 1.1 4.9 2.9 10.1 3.9 11.5 0.9 1.3 3.2 5.4 5 9 1.8 3.5 3.9 9.4 4.6 13 0.8 3.5 1.3 11.4 1.3 17.5 0 6-0.6 14.3-1.3 18.5-1.1 7.2-1.1 8 2 20 1.7 6.8 4.3 14.9 5.8 18 1.4 3 3.4 6.4 4.4 7.5 0.9 1.1 2.8 2.8 4.2 3.7 1.4 1 3.8 1.8 5.5 1.8 1.6 0 5.2-1.1 8-2.5 2.7-1.4 6.8-4 8.9-5.8 2.1-1.8 6.9-7.7 10.6-13.2 4.9-7.4 7.5-12.5 9.8-19.5 1.6-5.3 3.7-13 4.6-17.3 0.9-4.3 1.6-9.9 1.6-12.5 0-2.6-0.5-6.3-1.1-8.2-0.7-2-3.5-6.9-6.2-11-2.8-4.2-9.4-13.4-14.6-20.5-5.2-7.2-11.7-16.9-14.4-21.5-2.8-4.9-7.7-11.4-11.5-15.4-3.7-3.7-9.6-8.8-13.2-11.2-3.6-2.4-6.8-4.4-7.3-4.4-0.4 0 1.7 3.2 4.6 7.2 2.8 4 7.1 10.9 9.3 15.3 2.3 4.4 5.8 11.8 7.7 16.5 1.9 4.6 5.7 15.4 8.5 24 2.8 8.5 6.4 20.9 8.1 27.5 1.6 6.6 4.4 18.3 6.1 26 1.6 7.7 2.8 14.2 2.5 14.5-0.3 0.2-1 0-1.5-0.5-0.5-0.6-3.2-10.9-6-23-2.8-12.1-6.7-27.4-8.6-34-2-6.6-5.8-18.1-8.6-25.5-2.7-7.5-7.5-18.5-10.6-24.5-3.1-6.1-8.3-14.5-11.4-18.8-3.8-5-7.8-9.1-11.6-11.6-3.1-2.1-6.2-4.1-6.9-4.5-0.7-0.5-1.6 0.3-2.4 2-0.7 1.6-1.3 6.2-1.3 10.4zm-73.1-9.7c-1.8 2.6-1.9 4.8-2 25.5 0 22.5-0.1 22.7-2.9 30.2-1.6 4.1-4.6 10.6-6.8 14.5-2.2 3.8-6.3 10.1-9.2 14-2.9 3.8-9 10.7-13.7 15.3-4.8 4.7-10.6 9.4-13.4 10.7-2.8 1.4-5.9 2.5-7 2.4-1.9 0-1.8 0.2 0.5 2.6 1.4 1.4 4.1 3 6 3.6 2.9 0.9 4.2 0.8 7.5-0.8 3.1-1.5 5.6-4.3 11.8-13.3 4.3-6.4 9.7-14.7 12-18.5 2.2-3.9 5.6-10.9 7.5-15.5 1.9-4.7 3.6-8.8 3.8-9 0.2-0.3 0.6-0.3 0.9 0 0.2 0.2-0.3 2.9-1.1 6-0.9 3-3.4 9.1-5.7 13.5-2.2 4.4-6.2 11.3-9 15.5-2.8 4.1-6.2 9-7.7 11-1.5 1.9-3.6 4.7-4.6 6.3l-1.9 2.8c6.2-2.2 9.6-3.7 11.5-4.6 1.9-1 5.7-3.4 8.4-5.4 2.7-2 6.8-6.6 9.1-10.1 2.3-3.6 5.9-10.4 8-15 2-4.7 4.6-11.7 5.7-15.5 1.3-4.7 2.2-11.3 2.5-20 0.4-9.4 0.1-15.5-1.1-22-0.8-5-2.8-13.1-4.4-18l-2.8-9zm34 29.1c-1 13.8-1.4 28.5-1.1 32.8 0.4 5.1 2.9 15.5 7.2 30.5 3.6 12.5 7.4 27.7 8.5 33.7 1.1 6.1 2.2 17.1 2.6 24.5 0.3 7.8 0.1 15.9-0.5 19-0.5 3.1-0.9 5.6-0.8 5.8 0 0.1 1.7 0.5 3.6 0.8 3.4 0.6 3.6 0.5 4.3-2.7 0.4-1.9 1-9.4 1.3-16.9 0.5-11.7 0.3-15.4-2-28.5-1.4-8.2-2.6-15.4-2.6-16q0-1 0.9 0c0.5 0.6 1.6 4 2.5 7.5 0.9 3.6 2.3 11 3.1 16.5 0.8 5.5 1.5 13 1.5 16.5 0 3.6-0.5 9.7-1 13.5-0.6 3.9-1.2 7.8-1.5 8.8-0.3 1.2 0.1 1.7 1.5 1.7 1.1 0 3.4-0.6 5-1.5 1.7-0.8 4.1-2.9 5.4-4.7 1.2-1.8 4.5-7.1 7.1-11.8 3.9-7 4.8-9.6 5.3-15 0.2-3.5 0-11.9-0.7-18.5-0.6-6.6-2.3-17.6-3.7-24.5-1.5-6.8-2.8-13.6-3.1-15-0.3-2-0.2-2.2 0.6-1 0.6 0.9 2 4.5 3.1 8 1 3.6 2.6 10.4 3.5 15 0.9 4.7 1.9 14.6 2.3 22l0.6 13.5c3.5-7.7 5.5-13.6 6.7-18 1.1-4.4 2.3-12.5 2.6-18 0.4-5.7 0.1-13.4-0.6-18-0.6-4.4-2.4-10.7-3.9-14-1.6-3.3-5.1-9.3-7.9-13.5-2.8-4.1-7.5-9.8-10.4-12.6-3-2.8-9-7.6-13.4-10.5-4.4-3-8.5-5.8-9.2-6.2-0.9-0.5-0.9 0.7 0.3 4.6 0.9 2.9 4.6 14.7 8.1 26.2 3.6 11.6 8.3 26.9 10.3 34 2.1 7.2 4.5 17.3 5.4 22.5 0.9 5.3 1.6 10.5 1.6 11.8 0 1.2-0.4 2.2-1 2.2-0.5 0-1.7-4.4-2.6-9.7-0.9-5.4-2.9-14.7-4.4-20.8-1.6-6-6.5-22.2-10.9-36-4.5-13.7-8.6-27.7-9.2-31-0.6-3.3-2.3-8.2-3.7-11-1.4-2.7-3.7-9.2-5.2-14.5-1.5-5.2-3-8.8-3.3-8-0.3 0.9-1.3 12.8-2.2 26.5zm-171.7-6.5c-3.2 4.2-7.6 10.9-9.7 15-2.2 4.2-4.7 9.6-5.6 12-0.8 2.5-2 7.6-2.5 11.3-0.6 4.4-0.6 8.4 0 11.5 0.5 2.6 1.8 5.5 2.8 6.4 0.9 0.9 5.5 3.8 10.2 6.5l8.4 4.8c14.8-0.2 23.2-1 28.1-2 5-0.9 11.6-3 14.8-4.6l5.7-2.9c-0.9-8.1-1.3-10.7-1.6-11-0.3-0.2-1.7 0.3-3.2 1.3-1.5 1-5.8 3.4-9.7 5.2-3.8 1.9-8.8 3.7-11 4-3 0.4-3.5 0.3-2-0.4 1.1-0.5 5.4-2.3 9.5-4 4.1-1.7 9.4-4.6 11.8-6.5l4.2-3.6c0.1-22.4 0.7-30.8 1.8-36.6l1.7-9.1c-6.1 4.8-10.6 8.7-13.9 11.7-3.4 3-9.5 8.6-13.6 12.5-4.1 3.9-9.1 8.2-11 9.4-1.9 1.3 2.4-3.4 9.5-10.4 7.2-6.9 16-15.1 19.7-18.3l6.7-5.7c-12.3-0.8-16.5-1.7-18.1-2.8-1.5-0.9-4.1-3.6-5.8-5.9-1.7-2.4-3.3-5.1-3.5-6-0.3-1-0.9-1.8-1.4-1.8-0.5 0-4.4 2.8-8.7 6.3-4.2 3.4-10.3 9.6-13.6 13.7zm160.7 23.5c-1.3 6.1-3.1 15.1-4 20-0.8 5-1.5 13.3-1.5 18.5 0 5.3 0.7 15.4 1.6 22.5 0.9 7.2 3 18.2 4.5 24.5 1.8 7.1 4.8 15.4 7.8 21.5 3 6.2 6.8 12.2 9.9 15.5 2.8 3.1 5.4 5.2 5.9 4.7 0.4-0.5 1-6.8 1.2-14 0.2-7.2-0.1-17-0.7-21.7-0.6-4.6-2.2-13.9-3.7-20.5-1.5-6.6-4.5-17.6-6.7-24.5-2.2-6.8-4.6-15.8-5.4-20-0.7-4.1-1.3-12.9-1.3-19.5 0-6.6 0.5-16.5 1-22 0.6-5.5 0.9-10.1 0.7-10.2-0.2-0.2-1.8 3-3.6 7-1.8 4-4.3 12.2-5.7 18.2zm72.5-436c0.5 0.6 1.5 12.7 2.1 27.5 1 23.4 0.9 27.9-0.5 38-1.2 8-3.3 16.4-7.1 27.5-3 8.8-8.5 24.1-12.2 34-3.7 9.8-7.3 18-8 18.2-0.8 0.2 0.4-4.4 3.1-11.9 2.4-6.8 7.6-21.2 11.5-32 3.9-10.9 8.1-24.4 9.2-30 2-9.6 2.1-12.2 1.5-41.3-0.4-20.8-0.3-30.6 0.4-30zm84.9 89c0.4 0.3-1.4 3.3-3.8 6.8-2.4 3.4-7.6 10.3-11.6 15.2-3.9 5-12.3 14.8-18.6 21.9-6.2 7.1-14.9 16.9-19.1 21.7-4.3 4.9-8 8.6-8.3 8.2-0.2-0.4 5.3-7.3 12.3-15.3 7-7.9 15.7-17.8 19.2-22 3.6-4.1 11.7-14.1 18-22.3 6.2-8.1 11.6-14.5 11.9-14.2zm-139.4 77.8c5.5 0.3 12.2 1.2 14.8 2.1 2.6 0.9 4.7 2.1 4.7 2.6 0 0.6-0.8 0.7-1.7 0.4-1-0.3-4.3-1.2-7.3-2-3-0.7-9.2-1.3-13.7-1.4-5.9 0-8.1-0.3-7.6-1.1 0.5-0.8 3.8-1 10.8-0.6zm141.3 153.3c0.2 1.1-0.5 3.5-1.6 5.4-1 2-4.1 5.2-6.8 7.2-2.7 2.1-7.8 4.7-11.4 5.9-3.6 1.2-9.9 2.3-14 2.6-5.1 0.4-9.7 0-14.5-1.1-3.8-0.9-9.6-2.9-12.8-4.4-3.1-1.5-5.7-3-5.7-3.4 0-0.4 3.7 0.6 8.3 2.2 4.5 1.6 11.6 3.3 15.7 3.8 4.4 0.6 10.2 0.6 14 0.1 3.9-0.5 9.4-2.3 13.8-4.4 6.5-3.1 7.6-4.1 10.9-9.6 2.8-4.6 3.8-5.7 4.1-4.3zm35 46.4c0.4 0 10.4 1.9 22.2 4.2 11.8 2.2 22 4.5 22.5 5.1q1 1-1.5 0.5c-1.4-0.3-11.8-2.3-23.2-4.4-11.5-2.1-20.8-4.2-20.8-4.6 0-0.4 0.4-0.8 0.8-0.8zm59.2 10.5c3.6 0.3 8.7 0.5 11.3 0.5 2.6 0 4.7 0.5 4.7 1 0 0.7-3.5 0.8-9.7 0.4-5.4-0.3-10.5-1.1-11.3-1.6-0.9-0.6 0.8-0.7 5-0.3z"/>
</svg>