<svg version="1.2" xmlns="http://www.w3.org/2000/svg" viewBox="0 0 24 24" width="24" height="24">
	<title>spotify-svg</title>
	<style>
		.s0 { fill: #e6ddd8 } 
	</style>
	<path id="Layer" fill-rule="evenodd" class="s0" d="m19 0c2.8 0 5 2.2 5 5v14c0 2.8-2.2 5-5 5h-14c-2.8 0-5-2.2-5-5v-14c0-2.8 2.2-5 5-5zm-7 4c-4.4 0-8 3.6-8 8 0 4.4 3.6 8 8 8 4.4 0 8-3.6 8-8 0-4.4-3.6-8-8-8zm3.7 11.5c-0.2 0.3-0.5 0.3-0.7 0.2-1.9-1.1-4.3-1.4-7-0.8-0.3 0.1-0.6-0.1-0.6-0.3-0.1-0.3 0.1-0.6 0.3-0.6 3.1-0.7 5.7-0.4 7.8 0.9 0.2 0.1 0.3 0.4 0.2 0.6zm0.9-2.1c-0.1 0.3-0.5 0.3-0.8 0.2-2.2-1.4-5.4-1.7-8-1-0.3 0.1-0.7-0.1-0.8-0.4-0.1-0.3 0.1-0.7 0.5-0.8 2.9-0.8 6.5-0.4 8.9 1.1 0.3 0.2 0.4 0.6 0.2 0.9zm0.1-2.3c-2.5-1.5-6.8-1.7-9.3-0.9-0.4 0.1-0.8-0.1-0.9-0.5-0.1-0.4 0.1-0.8 0.5-1 2.8-0.8 7.5-0.7 10.5 1.1 0.4 0.2 0.5 0.7 0.3 1-0.3 0.4-0.7 0.5-1.1 0.3z"/>
</svg>