<svg version="1.2" xmlns="http://www.w3.org/2000/svg" viewBox="0 0 24 24" width="24" height="24">
	<title>tiktok-svg</title>
	<style>
		.s0 { fill: #e6ddd8 } 
	</style>
	<path id="Path 0" fill-rule="evenodd" class="s0" d="m12 0c4.8 0 7 0 7.3 0 0.3 0.1 0.6 0.1 0.8 0.1 0.2 0.1 0.5 0.1 0.6 0.2 0.2 0.1 0.5 0.2 0.7 0.3 0.2 0.1 0.5 0.3 0.7 0.4 0.1 0.1 0.4 0.3 0.5 0.5 0.2 0.2 0.4 0.4 0.5 0.6 0.1 0.2 0.3 0.4 0.4 0.6 0 0.1 0.1 0.4 0.2 0.6 0.1 0.2 0.1 0.5 0.2 0.7 0 0.2 0 0.7 0.1 1.1 0 0.5 0 2.9 0 7.4 0 4.8 0 6.8-0.1 7.1 0 0.2 0 0.5-0.1 0.6 0 0.2-0.1 0.5-0.2 0.7 0 0.2-0.1 0.4-0.2 0.5 0 0.1-0.2 0.4-0.3 0.5-0.1 0.2-0.3 0.5-0.5 0.7-0.2 0.1-0.4 0.4-0.6 0.5-0.1 0.1-0.4 0.3-0.6 0.4-0.2 0.1-0.5 0.2-0.6 0.2-0.2 0.1-0.4 0.1-0.6 0.2-0.2 0-0.6 0.1-0.9 0.1-0.4 0-2 0.1-7.3 0.1-5.3 0-6.9-0.1-7.3-0.1-0.3 0-0.7-0.1-0.9-0.1-0.1 0-0.4-0.1-0.6-0.2-0.2 0-0.5-0.1-0.6-0.2-0.1-0.1-0.4-0.2-0.6-0.4-0.2-0.1-0.4-0.3-0.6-0.5-0.2-0.2-0.4-0.5-0.6-0.7-0.1-0.2-0.3-0.5-0.4-0.7 0-0.2-0.2-0.5-0.2-0.7-0.1-0.2-0.1-0.6-0.2-0.8 0-0.3 0-2 0-7.7 0-5.6 0-7.3 0-7.6 0.1-0.2 0.1-0.6 0.2-0.8 0-0.2 0.1-0.5 0.2-0.7 0-0.1 0.2-0.4 0.2-0.5 0.1-0.1 0.3-0.3 0.3-0.5 0.1-0.1 0.3-0.3 0.5-0.5 0.2-0.2 0.5-0.4 0.7-0.5 0.2-0.2 0.4-0.3 0.6-0.4 0.1-0.1 0.4-0.2 0.6-0.2 0.1-0.1 0.4-0.1 0.5-0.2 0.2 0 0.5 0 0.8-0.1 0.3 0 0.5 0 0.5 0 0 0 3.1 0 6.9 0zm0.6 9.8c0 4.5 0 5.3 0 5.4 0 0.2-0.1 0.3-0.2 0.4 0 0.1-0.1 0.3-0.2 0.4-0.1 0.1-0.2 0.3-0.3 0.4-0.1 0-0.3 0.2-0.4 0.2-0.1 0.1-0.3 0.1-0.4 0.2-0.1 0-0.3 0-0.5 0-0.2 0-0.4 0-0.5 0-0.1-0.1-0.3-0.1-0.5-0.2-0.1-0.1-0.3-0.2-0.5-0.4-0.1-0.1-0.3-0.3-0.3-0.4-0.1-0.1-0.2-0.3-0.2-0.4-0.1-0.2-0.1-0.4-0.1-0.6q0-0.3 0-0.6c0.1-0.1 0.1-0.3 0.2-0.4 0-0.1 0.1-0.2 0.2-0.3 0.1-0.1 0.3-0.3 0.4-0.4 0.2-0.1 0.4-0.3 0.6-0.3 0.2-0.1 0.3-0.1 0.7-0.1 0.2 0 0.4 0 0.5 0h0.2c0-2 0-2.6 0-2.6-0.1-0.1-0.3-0.1-0.5-0.1-0.3 0-0.7 0-0.9 0-0.2 0-0.5 0.1-0.7 0.2-0.1 0-0.4 0.1-0.5 0.1q-0.3 0.1-0.6 0.3c-0.1 0.1-0.4 0.3-0.6 0.5-0.2 0.1-0.4 0.3-0.5 0.4-0.1 0.1-0.2 0.4-0.4 0.5-0.1 0.2-0.2 0.5-0.3 0.7-0.1 0.2-0.3 0.5-0.3 0.7-0.1 0.1-0.1 0.4-0.2 0.6 0 0.2 0 0.5 0 0.8 0 0.2 0 0.5 0 0.7 0.1 0.2 0.1 0.5 0.2 0.6 0 0.1 0.1 0.4 0.2 0.6 0 0.1 0.2 0.4 0.3 0.5 0.1 0.2 0.2 0.4 0.3 0.5 0.1 0.1 0.3 0.3 0.5 0.5 0.2 0.2 0.5 0.4 0.6 0.5 0.2 0.1 0.4 0.3 0.6 0.4 0.1 0 0.4 0.1 0.6 0.2 0.1 0.1 0.4 0.1 0.6 0.2q0.4 0 0.9 0c0.4 0 0.7 0 0.9-0.1 0.2 0 0.5-0.1 0.7-0.1 0.1-0.1 0.4-0.2 0.6-0.3 0.2-0.1 0.5-0.3 0.7-0.4q0.3-0.3 0.6-0.6c0.1-0.1 0.3-0.4 0.4-0.5 0.1-0.2 0.3-0.5 0.4-0.6 0.1-0.2 0.2-0.5 0.2-0.7 0.1-0.1 0.1-0.4 0.2-0.6 0-0.2 0-0.6 0-3.1v-2.8q0.5 0.2 0.7 0.3c0.1 0.1 0.3 0.2 0.5 0.3 0.2 0.1 0.6 0.2 0.8 0.3 0.3 0 0.6 0.1 0.7 0.1h0.2c0-2.8 0-3.2-0.1-3.2 0 0-0.2 0-0.4-0.1-0.2 0-0.5 0-0.7-0.1-0.1-0.1-0.4-0.2-0.5-0.2-0.1-0.1-0.3-0.2-0.5-0.4-0.2-0.1-0.4-0.3-0.5-0.4-0.1-0.1-0.2-0.3-0.3-0.4-0.1-0.2-0.2-0.4-0.3-0.5 0-0.1-0.1-0.4-0.1-0.5l-0.1-0.4c-1.7 0-2 0-2 0.1-0.1 0-0.1 0.8-0.1 5.2z"/>
</svg>