<svg version="1.2" xmlns="http://www.w3.org/2000/svg" viewBox="0 0 24 24" width="24" height="24">
	<title>instagram-svg</title>
	<style>
		.s0 { fill: #e6ddd8 } 
	</style>
	<path id="Layer" fill-rule="evenodd" class="s0" d="m24 5v14c0 2.8-2.2 5-5 5h-14c-2.8 0-5-2.2-5-5v-14c0-2.8 2.2-5 5-5h14c2.8 0 5 2.2 5 5zm-4 7c0-2.2 0-2.4 0-3.3-0.2-2.9-1.8-4.5-4.7-4.7-0.9 0-1.1 0-3.3 0-2.2 0-2.4 0-3.3 0-2.9 0.2-4.5 1.8-4.7 4.7 0 0.9 0 1.1 0 3.3 0 2.2 0 2.4 0 3.3 0.2 2.9 1.8 4.5 4.7 4.7 0.9 0 1.1 0 3.3 0 2.2 0 2.4 0 3.3 0 2.9-0.2 4.5-1.8 4.7-4.7 0-0.9 0-1.1 0-3.3zm-1.5-3.2c0.1 0.8 0.1 1.1 0.1 3.2 0 2.1 0 2.4-0.1 3.2-0.1 2.2-1.1 3.2-3.3 3.3-0.8 0.1-1.1 0.1-3.2 0.1-2.1 0-2.4 0-3.2-0.1-2.2-0.1-3.2-1.1-3.3-3.3 0-0.8-0.1-1.1-0.1-3.2 0-2.1 0.1-2.4 0.1-3.2 0.1-2.2 1.1-3.2 3.3-3.3 0.8 0 1.1-0.1 3.2-0.1 2.1 0 2.4 0.1 3.2 0.1 2.2 0.1 3.2 1.1 3.3 3.3zm-2.4 3.2c0-2.3-1.8-4.1-4.1-4.1-2.3 0-4.1 1.8-4.1 4.1 0 2.3 1.8 4.1 4.1 4.1 2.3 0 4.1-1.8 4.1-4.1zm-1.4 0c0 1.5-1.2 2.7-2.7 2.7-1.5 0-2.7-1.2-2.7-2.7 0-1.5 1.2-2.7 2.7-2.7 1.5 0 2.7 1.2 2.7 2.7zm2.5-4.3c0-0.5-0.4-0.9-0.9-0.9-0.6 0-1 0.4-1 0.9 0 0.6 0.4 1 1 1 0.5 0 0.9-0.4 0.9-1z"/>
</svg>